<svg width="31" height="30" viewBox="0 0 31 30" fill="none" xmlns="http://www.w3.org/2000/svg">
<ellipse cx="15.2479" cy="15" rx="15.12" ry="15" fill="#333333" fill-opacity="0.2"/>
<g clip-path="url(#clip0_2337_4881)">
<path d="M20.5397 14.25H16.0037V9.75C16.0037 9.3375 15.6635 9 15.2477 9C14.8319 9 14.4917 9.3375 14.4917 9.75V14.25H9.95571C9.53991 14.25 9.19971 14.5875 9.19971 15C9.19971 15.4125 9.53991 15.75 9.95571 15.75H14.4917V20.25C14.4917 20.6625 14.8319 21 15.2477 21C15.6635 21 16.0037 20.6625 16.0037 20.25V15.75H20.5397C20.9555 15.75 21.2957 15.4125 21.2957 15C21.2957 14.5875 20.9555 14.25 20.5397 14.25Z" fill="white"/>
</g>
<defs>
<clipPath id="clip0_2337_4881">
<rect width="12.096" height="12" fill="white" transform="translate(9.19971 9)"/>
</clipPath>
</defs>
</svg>
