<svg width="10" height="10" viewBox="0 0 10 10" fill="none" xmlns="http://www.w3.org/2000/svg">
<g clip-path="url(#clip0_7557_14451)">
<path d="M5.00011 0C5.15171 0 5.29793 0.0564097 5.41026 0.158203C5.52263 0.260123 5.59376 0.400776 5.60851 0.551758C5.62314 0.702597 5.58077 0.853961 5.49034 0.975586C5.39983 1.09719 5.267 1.18062 5.11827 1.20996V1.77637C6.11975 1.80789 7.08003 2.23787 7.83312 2.99805C8.69718 3.86617 9.18156 5.04175 9.1798 6.2666L9.17687 7.1377C9.17064 9.0671 7.79223 10.0878 5.19054 10.0879H4.81261C2.21097 10.0878 0.832584 9.06711 0.826279 7.1377L0.82335 6.26562C0.821775 5.04107 1.30616 3.86594 2.17003 2.99805C2.92239 2.23875 3.88157 1.80829 4.88194 1.77637V1.20996C4.7332 1.18061 4.60038 1.09722 4.50987 0.975586C4.41943 0.853939 4.37803 0.702623 4.39269 0.551758C4.40744 0.400776 4.47759 0.260123 4.58995 0.158203C4.70228 0.0563824 4.8485 1.67145e-05 5.00011 0ZM4.90831 8.04785C4.81672 8.06607 4.73221 8.11078 4.66612 8.17676C4.60003 8.24286 4.5545 8.32727 4.53624 8.41895C4.518 8.51067 4.5278 8.60598 4.56358 8.69238C4.59936 8.77866 4.65977 8.85238 4.73741 8.9043C4.81515 8.95624 4.90661 8.98436 5.00011 8.98438C5.12541 8.98438 5.24544 8.93425 5.33409 8.8457C5.42268 8.75711 5.47267 8.637 5.47276 8.51172C5.47276 8.41836 5.44545 8.3267 5.39366 8.24902C5.34171 8.17126 5.26717 8.11001 5.18077 8.07422C5.09458 8.03861 4.99979 8.02972 4.90831 8.04785ZM5.00011 2.91602C3.07102 2.91605 1.69823 4.5917 1.90147 6.49219C1.93748 6.83975 2.10045 7.16196 2.35948 7.39648C2.61875 7.63111 2.9561 7.76156 3.30577 7.7627C4.15293 7.76033 4.153 7.29006 5.00011 7.29004C5.84726 7.29004 5.84735 7.7603 6.69444 7.7627C7.04413 7.76157 7.38145 7.63112 7.64073 7.39648C7.8998 7.16196 8.06273 6.83978 8.09874 6.49219C8.30198 4.59167 6.92923 2.91602 5.00011 2.91602ZM0.834092 4.32031C0.857131 4.32412 0.87851 4.33469 0.895615 4.35059C0.912866 4.3667 0.925433 4.38814 0.930772 4.41113C0.93597 4.43388 0.934103 4.45765 0.925889 4.47949C0.697915 5.04704 0.582815 5.65402 0.587022 6.26562L0.589951 7.13867C0.590345 7.26468 0.596716 7.3919 0.609483 7.51562C0.611449 7.53885 0.606971 7.56254 0.595811 7.58301C0.58465 7.60338 0.567497 7.61997 0.546983 7.63086C0.526395 7.64174 0.502774 7.64678 0.4796 7.64453C0.456457 7.64223 0.434186 7.6328 0.416123 7.61816C0.378631 7.58703 0.342859 7.55327 0.309678 7.51758C-0.0271437 7.15081 -0.012114 6.68495 0.00987323 6.04102C0.0313826 5.40141 0.0474424 4.93953 0.41124 4.57715C0.514232 4.47532 0.633757 4.39185 0.764756 4.33008C0.786206 4.32022 0.810786 4.31655 0.834092 4.32031ZM9.23546 4.3291C9.36668 4.39092 9.48682 4.47515 9.58995 4.57715C9.95343 4.9395 9.96884 5.40152 9.99034 6.04102C10.012 6.68495 10.0274 7.15081 9.69054 7.51758C9.65738 7.55323 9.62155 7.58706 9.58409 7.61816C9.56605 7.63275 9.54371 7.64126 9.52062 7.64355C9.49745 7.64579 9.47381 7.64174 9.45323 7.63086C9.43275 7.61997 9.41555 7.60335 9.4044 7.58301C9.39326 7.56256 9.38879 7.53882 9.39073 7.51562C9.4035 7.3919 9.41026 7.26476 9.41026 7.13867L9.41319 6.26562C9.41744 5.65399 9.30228 5.04707 9.07433 4.47949C9.06613 4.45769 9.06428 4.43384 9.06944 4.41113C9.07478 4.38814 9.08735 4.3667 9.1046 4.35059C9.12184 4.33451 9.14383 4.32407 9.1671 4.32031C9.19026 4.31663 9.21414 4.31933 9.23546 4.3291ZM4.53136 5.5918C4.65669 5.5929 4.77649 5.64403 4.86437 5.7334C4.87982 5.75583 4.90078 5.77447 4.92491 5.78711C4.94899 5.79969 4.97587 5.80573 5.00304 5.80566C5.03028 5.80559 5.0571 5.79891 5.08116 5.78613C5.10522 5.77336 5.12639 5.75494 5.14171 5.73242C5.23104 5.64527 5.35088 5.59644 5.47569 5.5957C5.6004 5.59505 5.72038 5.64248 5.81065 5.72852C5.89848 5.81712 5.94856 5.93677 5.94933 6.06152C5.95006 6.18631 5.90136 6.30683 5.81456 6.39648C5.7109 6.50815 5.58506 6.59726 5.44542 6.6582C5.30569 6.71914 5.1545 6.75098 5.00206 6.75098C4.84979 6.75091 4.69926 6.71907 4.55968 6.6582C4.41987 6.59718 4.29329 6.50834 4.18956 6.39648C4.10172 6.30704 4.05369 6.18591 4.0548 6.06055C4.05592 5.93517 4.10696 5.81541 4.1964 5.72754C4.28579 5.63982 4.40611 5.59073 4.53136 5.5918ZM3.66124 4.2168C3.7862 4.21799 3.90596 4.26801 3.99425 4.35645C4.08239 4.44486 4.13193 4.5646 4.13292 4.68945V5.24121C4.13184 5.36605 4.08246 5.48586 3.99425 5.57422C3.90596 5.66262 3.78618 5.71267 3.66124 5.71387C3.53413 5.71124 3.41297 5.65853 3.32433 5.56738C3.23573 5.47624 3.18669 5.35366 3.18761 5.22656C3.18918 5.0957 3.18918 4.83391 3.18761 4.70312C3.18676 4.57609 3.23575 4.45339 3.32433 4.3623C3.41296 4.27123 3.53418 4.21943 3.66124 4.2168ZM6.33897 4.2168C6.466 4.21942 6.58726 4.27127 6.67589 4.3623C6.76447 4.45339 6.81345 4.57608 6.81261 4.70312C6.81103 4.8339 6.81103 5.0957 6.81261 5.22656C6.81353 5.35369 6.76452 5.47624 6.67589 5.56738C6.58725 5.65853 6.46609 5.71124 6.33897 5.71387C6.21406 5.71264 6.09423 5.66263 6.00597 5.57422C5.91776 5.48586 5.86837 5.36605 5.8673 5.24121V4.68945C5.86828 4.56463 5.91786 4.44486 6.00597 4.35645C6.09423 4.26804 6.21406 4.21803 6.33897 4.2168Z" fill="#878FBC"/>
</g>
<defs>
<clipPath id="clip0_7557_14451">
<rect width="10" height="10" fill="white"/>
</clipPath>
</defs>
</svg>
