<svg width="20" height="20" viewBox="0 0 20 20" fill="none" xmlns="http://www.w3.org/2000/svg">
<circle cx="10" cy="10" r="10" fill="#333333"/>
<path d="M8.68428 9.62155H5.95376C5.61247 9.62155 5.33325 9.33883 5.33325 8.99326V6.2285C5.33325 5.88293 5.61247 5.60021 5.95376 5.60021H8.68428C9.02557 5.60021 9.30479 5.88293 9.30479 6.2285V8.99326C9.30479 9.33883 9.02557 9.62155 8.68428 9.62155ZM8.68428 14.6667H5.95376C5.61247 14.6667 5.33325 14.384 5.33325 14.0384V11.2737C5.33325 10.9281 5.61247 10.6454 5.95376 10.6454H8.68428C9.02557 10.6454 9.30479 10.9281 9.30479 11.2737V14.0384C9.30479 14.384 9.02557 14.6667 8.68428 14.6667ZM12.0303 9.72704L10.3273 8.00275C10.1146 7.78733 10.1146 7.43465 10.3273 7.21923L12.0303 5.49494C12.243 5.27952 12.5913 5.27952 12.8041 5.49494L14.507 7.21923C14.7198 7.43465 14.7198 7.78733 14.507 8.00275L12.8041 9.72704C12.5913 9.94246 12.2432 9.94246 12.0303 9.72704ZM13.7825 14.6667H11.052C10.7107 14.6667 10.4315 14.384 10.4315 14.0384V11.2737C10.4315 10.9281 10.7107 10.6454 11.052 10.6454H13.7825C14.1238 10.6454 14.4031 10.9281 14.4031 11.2737V14.0384C14.4031 14.384 14.1238 14.6667 13.7825 14.6667Z" fill="white"/>
</svg>
