<svg width="12" height="12" viewBox="0 0 12 12" fill="none" xmlns="http://www.w3.org/2000/svg">
<path fill-rule="evenodd" clip-rule="evenodd" d="M5.90372 3.46595C5.81566 3.48634 5.73206 3.53085 5.66344 3.59947L1.6565 7.60641C1.46124 7.80167 1.46124 8.11825 1.6565 8.31351C1.85176 8.50878 2.16835 8.50878 2.36361 8.31351L6.0185 4.65863L9.67281 8.31294C9.86808 8.50821 10.1847 8.50821 10.3799 8.31294C10.5752 8.11768 10.5752 7.8011 10.3799 7.60584L6.37298 3.5989C6.24571 3.47162 6.06689 3.42731 5.90372 3.46595Z" fill="#999999"/>
<mask id="mask0_3659_4840" style="mask-type:luminance" maskUnits="userSpaceOnUse" x="1" y="3" width="10" height="6">
<path fill-rule="evenodd" clip-rule="evenodd" d="M5.90372 3.46595C5.81566 3.48634 5.73206 3.53085 5.66344 3.59947L1.6565 7.60641C1.46124 7.80167 1.46124 8.11825 1.6565 8.31351C1.85176 8.50878 2.16835 8.50878 2.36361 8.31351L6.0185 4.65863L9.67281 8.31294C9.86808 8.50821 10.1847 8.50821 10.3799 8.31294C10.5752 8.11768 10.5752 7.8011 10.3799 7.60584L6.37298 3.5989C6.24571 3.47162 6.06689 3.42731 5.90372 3.46595Z" fill="white"/>
</mask>
<g mask="url(#mask0_3659_4840)">
</g>
</svg>

