<svg width="12" height="12" viewBox="0 0 12 12" fill="none" xmlns="http://www.w3.org/2000/svg">
<path fill-rule="evenodd" clip-rule="evenodd" d="M6.09628 8.53405C6.18434 8.51366 6.26794 8.46915 6.33656 8.40053L10.3435 4.39359C10.5388 4.19833 10.5388 3.88175 10.3435 3.68649C10.1482 3.49122 9.83165 3.49122 9.63639 3.68649L5.9815 7.34137L2.32719 3.68706C2.13192 3.49179 1.81534 3.49179 1.62008 3.68706C1.42482 3.88232 1.42482 4.1989 1.62008 4.39416L5.62702 8.4011C5.75429 8.52838 5.93311 8.57269 6.09628 8.53405Z" fill="#999999"/>
<mask id="mask0_3659_4735" style="mask-type:luminance" maskUnits="userSpaceOnUse" x="1" y="3" width="10" height="6">
<path fill-rule="evenodd" clip-rule="evenodd" d="M6.09628 8.53405C6.18434 8.51366 6.26794 8.46915 6.33656 8.40053L10.3435 4.39359C10.5388 4.19833 10.5388 3.88175 10.3435 3.68649C10.1482 3.49122 9.83165 3.49122 9.63639 3.68649L5.9815 7.34137L2.32719 3.68706C2.13192 3.49179 1.81534 3.49179 1.62008 3.68706C1.42482 3.88232 1.42482 4.1989 1.62008 4.39416L5.62702 8.4011C5.75429 8.52838 5.93311 8.57269 6.09628 8.53405Z" fill="white"/>
</mask>
<g mask="url(#mask0_3659_4735)">
</g>
</svg>
