<svg width="60" height="16" viewBox="0 0 60 16" fill="none" xmlns="http://www.w3.org/2000/svg">
<path d="M14.6622 12.898L13.9215 11.6503H3.277L8.60754 2.42749L7.21567 0H5.41949C5.03379 0.000865624 4.65523 0.104095 4.32249 0.299143C3.98974 0.494191 3.71473 0.774068 3.52555 1.11018L0.304357 6.79366C0.117063 7.12172 0.0185547 7.49295 0.0185547 7.8707C0.0185547 8.24846 0.117063 8.61969 0.304357 8.94775L2.55952 12.9245L3.52555 14.6279C3.69113 14.9201 3.9221 15.17 4.20037 15.358C4.47864 15.546 4.79666 15.667 5.12951 15.7116C5.22504 15.7249 5.32138 15.7316 5.41783 15.7315H11.789C12.1745 15.7317 12.5533 15.6297 12.8866 15.4358C13.2198 15.2419 13.4958 14.9632 13.6862 14.6279L14.6456 12.9245L14.6622 12.898Z" fill="url(#paint0_linear_21436_12511)"/>
<path d="M13.9215 11.6506H3.29688L3.34161 11.6241L6.90746 9.47995C7.45758 9.12204 7.87183 8.91326 8.26122 8.84532C8.27004 8.84454 8.27891 8.84454 8.28773 8.84532L8.36395 8.83538L8.49651 8.82544H8.57605C8.63978 8.82718 8.70338 8.83215 8.7666 8.84035C9.17257 8.89503 9.60835 9.09719 10.2016 9.44018L13.9016 11.6374L13.9215 11.6506Z" fill="url(#paint1_linear_21436_12511)"/>
<path d="M14.6613 12.8987L14.643 12.9301L13.682 14.6269C13.4923 14.9621 13.217 15.2409 12.8843 15.4348C12.5515 15.6287 12.1732 15.7308 11.788 15.7305H5.4169C5.32045 15.7305 5.22411 15.7239 5.12859 15.7106C4.79518 15.6663 4.47655 15.5455 4.19769 15.3575C3.91883 15.1695 3.68732 14.9194 3.52131 14.6269L2.55859 12.9252L3.2943 11.6526L3.33241 11.6294L6.90488 9.47531C7.45666 9.1174 7.86925 8.90696 8.2603 8.84068C8.26912 8.8399 8.27799 8.8399 8.28681 8.84068L8.36303 8.83074L8.49559 8.8208H8.57513C8.63886 8.82254 8.70246 8.82752 8.76568 8.83571C9.17165 8.89039 9.60578 9.0942 10.199 9.43554L13.9007 11.6377L13.9222 11.6509L14.6613 12.8987Z" fill="url(#paint2_linear_21436_12511)"/>
<g opacity="0.5">
<path d="M10.1898 9.43456C8.78471 8.61601 8.25944 8.59115 6.89574 9.4793L3.28516 11.65L6.89574 9.9416C8.25944 9.05179 8.77974 9.08328 10.1898 9.8952L13.9114 11.6516L10.1898 9.43456Z" fill="url(#paint3_linear_21436_12511)"/>
</g>
<path d="M16.9042 8.94775L14.6458 12.9245L14.664 12.893L13.9217 11.6503L8.61929 2.41589V2.42749L7.21582 0H11.7908C12.1766 0.00108473 12.5553 0.10439 12.8883 0.299401C13.2213 0.494412 13.4967 0.774165 13.6864 1.11018L16.9042 6.79366C17.0907 7.12198 17.1888 7.49311 17.1888 7.8707C17.1888 8.2483 17.0907 8.61943 16.9042 8.94775Z" fill="url(#paint4_linear_21436_12511)"/>
<path d="M0.285803 8.94775L2.54594 12.9245L2.52771 12.893L3.26839 11.6453L8.57076 2.41092V2.42252L9.97754 0H5.40093C5.01523 0.000865624 4.63668 0.104095 4.30393 0.299143C3.97119 0.494191 3.69617 0.774068 3.50699 1.11018L0.285803 6.79366C0.0985086 7.12172 0 7.49295 0 7.8707C0 8.24846 0.0985086 8.61969 0.285803 8.94775Z" fill="url(#paint5_linear_21436_12511)"/>
<path opacity="0.51" d="M9.97763 0L8.5957 2.40429L8.85254 2.81357L9.97763 0Z" fill="url(#paint6_linear_21436_12511)"/>
<path d="M57.9734 11.9304V4.17567H59.7762V11.9304H57.9734ZM57.748 2.28007C57.748 1.60402 58.1855 1.15332 58.8748 1.15332C59.5774 1.15332 60.0016 1.60402 60.0016 2.28007C60.0016 2.95613 59.5774 3.39357 58.8748 3.39357C58.1457 3.39357 57.748 2.95613 57.748 2.28007Z" fill="black"/>
<path d="M52.6439 12.0903C50.7748 12.0903 48.8262 10.6056 48.8262 8.06051C48.8262 5.48886 50.7085 4.01746 52.6704 4.01746C53.6911 4.01746 54.5925 4.42839 55.1625 5.10444V4.17653H56.9521V11.9312H55.1625V10.9238C54.5925 11.6529 53.6646 12.0903 52.6439 12.0903ZM52.9355 10.4466C54.2744 10.4466 55.2553 9.37285 55.2553 8.034C55.2553 6.70841 54.2744 5.64793 52.9355 5.64793C51.6099 5.64793 50.5892 6.69515 50.5892 8.034C50.5892 9.3861 51.6099 10.4466 52.9355 10.4466Z" fill="black"/>
<path d="M46.1094 11.0161C46.1094 10.3665 46.5203 9.92908 47.1964 9.92908C47.8724 9.92908 48.2701 10.3665 48.2701 11.0161C48.2701 11.6523 47.8592 12.0898 47.1831 12.0898C46.5071 12.0898 46.1094 11.6523 46.1094 11.0161Z" fill="black"/>
<path d="M41.6078 12.0903C39.1687 12.0903 37.5117 10.314 37.5117 8.07377C37.5117 5.80701 39.2748 4.01746 41.5415 4.01746C43.8481 4.01746 45.5316 5.71421 45.5316 8.00749V8.68354H39.2217C39.4736 9.78378 40.3352 10.5129 41.6078 10.5129C42.6153 10.5129 43.3841 9.98262 43.7553 9.1475L45.2267 9.99588C44.5506 11.2552 43.3576 12.0903 41.6078 12.0903ZM41.5415 5.59491C40.4678 5.59491 39.6327 6.2312 39.3145 7.18562H43.7155C43.4504 6.1384 42.655 5.59491 41.5415 5.59491Z" fill="black"/>
<path d="M32.9834 11.9296L30.0273 4.17493H31.8964L33.8981 9.63637L35.86 4.17493H37.7025L34.7862 11.9296H32.9834Z" fill="black"/>
<path d="M22.2617 11.9288L25.7083 2.25195H27.5243L30.9709 11.9288H29.0885L28.492 10.2055H24.7406L24.1441 11.9288H22.2617ZM26.6229 4.81035L25.3503 8.48224H27.8955L26.6229 4.81035Z" fill="black"/>
<defs>
<linearGradient id="paint0_linear_21436_12511" x1="12.7942" y1="14.333" x2="0.355944" y2="5.37953" gradientUnits="userSpaceOnUse">
<stop stop-color="#8B4FDD"/>
<stop offset="1" stop-color="#12B886"/>
</linearGradient>
<linearGradient id="paint1_linear_21436_12511" x1="12.5662" y1="11.3995" x2="11.1176" y2="7.18649" gradientUnits="userSpaceOnUse">
<stop stop-color="#8B4FDD"/>
<stop offset="1" stop-color="#12B886"/>
</linearGradient>
<linearGradient id="paint2_linear_21436_12511" x1="13.1174" y1="15.1162" x2="7.61174" y2="7.65882" gradientUnits="userSpaceOnUse">
<stop stop-color="#8B4FDD"/>
<stop offset="1" stop-color="#12B886"/>
</linearGradient>
<linearGradient id="paint3_linear_21436_12511" x1="12.5559" y1="11.3996" x2="11.0987" y2="7.17529" gradientUnits="userSpaceOnUse">
<stop stop-color="#8B4FDD"/>
<stop offset="1" stop-color="#12B886"/>
</linearGradient>
<linearGradient id="paint4_linear_21436_12511" x1="15.9166" y1="11.7756" x2="6.43302" y2="6.11663" gradientUnits="userSpaceOnUse">
<stop stop-color="#8B4FDD"/>
<stop offset="1" stop-color="#12B886"/>
</linearGradient>
<linearGradient id="paint5_linear_21436_12511" x1="8.7048" y1="11.7756" x2="-0.780884" y2="6.11281" gradientUnits="userSpaceOnUse">
<stop stop-color="#8B4FDD"/>
<stop offset="1" stop-color="#12B886"/>
</linearGradient>
<linearGradient id="paint6_linear_21436_12511" x1="9.80135" y1="2.56345" x2="8.244" y2="1.97193" gradientUnits="userSpaceOnUse">
<stop stop-color="#8B4FDD"/>
<stop offset="1" stop-color="#12B886"/>
</linearGradient>
</defs>
</svg>
