<svg width="31" height="30" viewBox="0 0 31 30" fill="none" xmlns="http://www.w3.org/2000/svg">
<ellipse cx="15.12" cy="15" rx="15.12" ry="15" fill="#333333" fill-opacity="0.2"/>
<path d="M9.65181 18.8455L13.5998 14.8835L9.65181 10.9215C9.48424 10.7527 9.3902 10.5246 9.3902 10.2868C9.3902 10.049 9.48424 9.82086 9.65181 9.65214C9.82054 9.48457 10.0487 9.39053 10.2865 9.39053C10.5243 9.39053 10.7524 9.48457 10.9211 9.65214L14.8831 13.6001L18.8451 9.63814C18.928 9.55475 19.0265 9.48857 19.135 9.44341C19.2436 9.39825 19.3599 9.375 19.4775 9.375C19.595 9.375 19.7114 9.39825 19.8199 9.44341C19.9284 9.48857 20.027 9.55475 20.1098 9.63814C20.1932 9.72098 20.2594 9.8195 20.3045 9.92802C20.3497 10.0365 20.3729 10.1529 20.3729 10.2705C20.3729 10.388 20.3497 10.5044 20.3045 10.6129C20.2594 10.7214 20.1932 10.82 20.1098 10.9028L16.1478 14.8648L20.3478 19.0648C20.4312 19.1476 20.4974 19.2462 20.5425 19.3547C20.5877 19.4632 20.6109 19.5796 20.6109 19.6971C20.6109 19.8147 20.5877 19.9311 20.5425 20.0396C20.4974 20.1481 20.4312 20.2466 20.3478 20.3295C20.1791 20.497 19.9509 20.5911 19.7131 20.5911C19.4753 20.5911 19.2472 20.497 19.0785 20.3295L14.8785 16.1295L10.9211 20.1335C10.7524 20.301 10.5243 20.3951 10.2865 20.3951C10.0487 20.3951 9.82054 20.301 9.65181 20.1335C9.56842 20.0506 9.50224 19.9521 9.45708 19.8436C9.41192 19.7351 9.38867 19.6187 9.38867 19.5011C9.38867 19.3836 9.41192 19.2672 9.45708 19.1587C9.50224 19.0502 9.56842 18.9516 9.65181 18.8688V18.8455Z" fill="white"/>
</svg>
