<svg width="10" height="10" viewBox="0 0 10 10" fill="none" xmlns="http://www.w3.org/2000/svg">
<path fill-rule="evenodd" clip-rule="evenodd" d="M5 0C2.2385 0 0 2.2385 0 5C0 7.7615 2.2385 10 5 10C7.7615 10 10 7.7615 10 5C10 2.2385 7.7615 0 5 0ZM6.76501 6.76501C6.69201 6.83801 6.596 6.875 6.5 6.875C6.404 6.875 6.30799 6.83851 6.23499 6.76501L4.73499 5.26501C4.66449 5.19451 4.625 5.099 4.625 5V2.5C4.625 2.293 4.793 2.125 5 2.125C5.207 2.125 5.375 2.293 5.375 2.5V4.84448L6.76501 6.2345C6.91151 6.3815 6.91151 6.61851 6.76501 6.76501Z" fill="#D4D4D4"/>
</svg>
