<svg width="16" height="16" viewBox="0 0 16 16" fill="none" xmlns="http://www.w3.org/2000/svg">
<path d="M7.67616 1.39552C7.88429 1.31261 8.11563 1.31261 8.32376 1.39552C8.99469 1.66271 9.12576 2.69163 9.91743 2.74891C10.4749 2.78924 11.022 2.32452 11.5814 2.46383C11.807 2.52002 12.0018 2.66386 12.124 2.86438C12.4981 3.47883 12.0152 4.38195 12.6255 4.89179C13.0495 5.24585 13.75 5.20003 14.1186 5.63407C14.2738 5.8169 14.3501 6.05536 14.3302 6.2958C14.2712 7.01107 13.3592 7.4584 13.5596 8.22927C13.6983 8.76287 14.2835 9.138 14.3302 9.7042C14.3501 9.94467 14.2738 10.1831 14.1186 10.3659C13.6554 10.9113 12.6538 10.7317 12.365 11.4708C12.1622 11.9896 12.4226 12.6451 12.124 13.1356C12.0018 13.3361 11.807 13.48 11.5814 13.5362C10.8868 13.7091 10.1818 12.963 9.51336 13.3839C9.03616 13.6843 8.86516 14.389 8.32376 14.6045C8.11563 14.6874 7.88429 14.6874 7.67616 14.6045C7.13476 14.389 6.96376 13.6843 6.48655 13.3839C5.82643 12.9683 5.10138 13.7062 4.41857 13.5362C4.19294 13.48 3.99809 13.3361 3.87599 13.1356C3.50187 12.5212 3.98465 11.618 3.37443 11.1082C2.95051 10.7541 2.24992 10.8 1.88132 10.3659C1.7261 10.1831 1.64985 9.94467 1.66973 9.7042C1.71653 9.138 2.30156 8.76287 2.44029 8.22927C2.63868 7.46647 1.72799 7.0006 1.66973 6.2958C1.64985 6.05536 1.7261 5.8169 1.88132 5.63407C2.34447 5.08856 3.34595 5.26836 3.63488 4.52922C3.83771 4.0104 3.57735 3.35485 3.87599 2.86438C3.99809 2.66386 4.19294 2.52002 4.41857 2.46383C4.97799 2.32452 5.52501 2.78925 6.08248 2.74891C6.87416 2.69164 7.00523 1.66271 7.67616 1.39552Z" fill="#333333"/>
<path d="M6 8.88886C6 8.88886 6.58333 8.88886 7.16667 10C7.16667 10 9.0196 7.2222 10.6667 6.66666" stroke="white" stroke-linecap="round" stroke-linejoin="round"/>
</svg>
