<svg width="32" height="32" viewBox="0 0 32 32" fill="none" xmlns="http://www.w3.org/2000/svg">
<circle cx="16" cy="16" r="16" fill="#21C161"/>
<mask id="mask0_49552_17861" style="mask-type:luminance" maskUnits="userSpaceOnUse" x="7" y="9" width="18" height="16">
<path d="M24.9098 9.25H7.09644V24.3403H24.9098V9.25Z" fill="white"/>
</mask>
<g mask="url(#mask0_49552_17861)">
<path d="M22.3992 15.9883C22.3992 16.5823 22.8713 17.0527 23.4636 17.0527C24.0576 17.0527 24.5281 16.5806 24.5281 15.9883C24.5281 15.3943 24.0559 14.9238 23.4636 14.9238C22.8696 14.9238 22.3992 15.3943 22.3992 15.9883Z" fill="white"/>
<path d="M24.9098 12.308C24.9098 10.6191 23.5407 9.25 21.8518 9.25H10.1392C8.46552 9.25 7.09644 10.6191 7.09644 12.308V19.6848C7.09644 21.2366 8.25229 22.5143 9.74322 22.7123V24.3556L12.5728 22.7276H21.8518C23.5407 22.7276 24.9098 21.3585 24.9098 19.6696V18.0872H23.5711C22.4001 18.0872 21.4422 17.1294 21.4422 15.9584C21.4422 14.7873 22.4001 13.8294 23.5711 13.8294H24.9098V12.308Z" fill="white"/>
</g>
</svg>
