<svg width="10" height="10" viewBox="0 0 10 10" fill="none" xmlns="http://www.w3.org/2000/svg">
<g clip-path="url(#clip0_1339_93)">
<path d="M7.488 4.8L2.66667 9.6H0V6.93333L4.8 2.112C4.864 2.048 4.96533 2.048 5.024 2.112L7.48267 4.57067C7.54667 4.63467 7.54667 4.736 7.48267 4.79467L7.488 4.8ZM8.05867 4.016C8.12267 4.08 8.224 4.08 8.28267 4.016L9.28533 3.01333C9.70133 2.59733 9.70133 1.91467 9.28533 1.49867L8.10133 0.314666C7.68533 -0.101334 7.00267 -0.101334 6.58667 0.314666L5.584 1.31733C5.52 1.38133 5.52 1.48267 5.584 1.54133L8.05867 4.016ZM9.6 9.2H5.86667C5.648 9.2 5.46667 9.38133 5.46667 9.6C5.46667 9.81867 5.648 10 5.86667 10H9.6C9.81867 10 10 9.81867 10 9.6C10 9.38133 9.81867 9.2 9.6 9.2Z" fill="#999999"/>
</g>
<defs>
<clipPath id="clip0_1339_93">
<rect width="10" height="10" fill="white"/>
</clipPath>
</defs>
</svg>
