<svg width="14" height="14" viewBox="0 0 14 14" fill="none" xmlns="http://www.w3.org/2000/svg">
<path d="M9.33335 11.6667C9.18401 11.6667 9.03466 11.6095 8.92091 11.4958C8.69283 11.2677 8.69283 10.899 8.92091 10.6709L10.8418 8.75002H3.50001C3.17743 8.75002 2.91668 8.48869 2.91668 8.16669C2.91668 7.84469 3.17743 7.58335 3.50001 7.58335H12.25C12.4857 7.58335 12.6992 7.72565 12.7891 7.94324C12.8795 8.1614 12.8293 8.41229 12.6624 8.57912L9.74578 11.4958C9.63203 11.6095 9.48268 11.6667 9.33335 11.6667ZM11.0833 5.25002C11.0833 4.92802 10.8226 4.66669 10.5 4.66669H3.15822L5.07912 2.74579C5.3072 2.5177 5.3072 2.149 5.07912 1.92092C4.85103 1.69283 4.48233 1.69283 4.25425 1.92092L1.33758 4.83758C1.17075 5.00442 1.12056 5.2553 1.21097 5.47347C1.30081 5.69164 1.51435 5.83335 1.75001 5.83335H10.5C10.8226 5.83335 11.0833 5.57202 11.0833 5.25002Z" fill="#878FBC"/>
</svg>
