<svg width="10" height="10" viewBox="0 0 10 10" fill="none" xmlns="http://www.w3.org/2000/svg">
<path d="M5 0C2.2385 0 0 2.2385 0 5C0 7.7615 2.2385 10 5 10C7.7615 10 10 7.7615 10 5C10 2.2385 7.7615 0 5 0ZM2.15344 4.39355C2.09594 4.25355 2.12749 4.09199 2.23499 3.98499L3.73499 2.48499C3.88149 2.33849 4.119 2.33849 4.2655 2.48499C4.412 2.63149 4.412 2.869 4.2655 3.0155L3.40552 3.87549H6.5C6.707 3.87549 6.875 4.04349 6.875 4.25049C6.875 4.45749 6.707 4.62549 6.5 4.62549H2.5C2.348 4.62499 2.21144 4.53355 2.15344 4.39355ZM7.76501 6.01501L6.26501 7.51501C6.19201 7.58801 6.096 7.625 6 7.625C5.904 7.625 5.80799 7.58851 5.73499 7.51501C5.58849 7.36851 5.58849 7.131 5.73499 6.9845L6.59497 6.12451H3.5C3.293 6.12451 3.125 5.95651 3.125 5.74951C3.125 5.54251 3.293 5.37451 3.5 5.37451H7.5C7.652 5.37451 7.78856 5.46596 7.84656 5.60596C7.90456 5.74646 7.87251 5.90801 7.76501 6.01501Z" fill="#D4D4D4"/>
</svg>
