<svg width="17" height="16" viewBox="0 0 17 16" fill="none" xmlns="http://www.w3.org/2000/svg">
<ellipse cx="8.52787" cy="8" rx="8.064" ry="8" fill="#D9D9D9"/>
<mask id="mask0_2337_4834" style="mask-type:luminance" maskUnits="userSpaceOnUse" x="3" y="3" width="11" height="10">
<path d="M13.5678 3H3.48779V13H13.5678V3Z" fill="white"/>
</mask>
<g mask="url(#mask0_2337_4834)">
<path d="M13.2422 4.25208L12.13 3.15695C12.0336 3.06093 11.9026 3.00708 11.766 3.00708C11.6294 3.00708 11.4984 3.06106 11.402 3.15695C11.3052 3.2526 11.2507 3.38248 11.2507 3.51809C11.2507 3.65371 11.3052 3.78359 11.402 3.87924L12.1229 4.59508L11.5898 5.14618C11.4159 5.32395 11.4159 5.6065 11.5898 5.78428C11.6703 5.86993 11.7832 5.91855 11.9013 5.9183H11.9064L12.5093 5.91684V10.5909C12.5098 10.7649 12.369 10.9069 12.1935 10.9097H12.1877C12.0161 10.9065 11.8786 10.7675 11.8791 10.5974V7.68492C11.8791 6.93875 11.2686 6.33391 10.5158 6.33391C10.3423 6.33355 10.2018 6.19428 10.2014 6.02236V3.83928C10.2014 3.38017 9.82519 3.00659 9.36179 3.00659H4.95585C4.49257 3.00732 4.11696 3.38017 4.11696 3.83928V11.8536C4.11696 11.9063 4.0738 11.9506 4.02056 11.9506C3.73888 11.9511 3.50564 12.1676 3.48683 12.4461C3.48056 12.5877 3.53294 12.7256 3.63179 12.828C3.73064 12.9303 3.86749 12.9881 4.01048 12.988H10.2982C10.586 12.988 10.8277 12.7599 10.8306 12.4746C10.8325 12.3356 10.7781 12.2017 10.6795 12.1028C10.5808 12.0038 10.4463 11.9483 10.3061 11.9485C10.2477 11.9485 10.2003 11.9016 10.2003 11.8437V7.68724C10.1997 7.56076 10.2763 7.44647 10.3942 7.3981C10.5121 7.34961 10.6477 7.37654 10.7377 7.46621C10.7953 7.52324 10.8306 7.6017 10.8306 7.68797V10.599C10.8193 11.0891 11.0766 11.547 11.5032 11.7955C11.9299 12.0439 12.4587 12.0439 12.8853 11.7955C13.3118 11.547 13.5693 11.0891 13.558 10.599V4.9985C13.558 4.70547 13.4358 4.44106 13.2414 4.25208H13.2421H13.2422ZM5.21847 4.72252C5.21847 4.37673 5.50052 4.09795 5.84798 4.09795H8.52278C8.87023 4.09795 9.15228 4.37673 9.15228 4.72179V6.43712C9.15191 6.78145 8.87036 7.06059 8.52278 7.06096H5.84798C5.50052 7.06059 5.21884 6.78145 5.21847 6.43712V4.72179V4.72252ZM12.9293 5.29227L12.5077 5.293H12.3193L12.5774 5.02713L12.8465 4.74909C12.9004 4.82134 12.9295 4.90882 12.9292 4.99862V5.29239L12.9293 5.29227Z" fill="white"/>
</g>
</svg>
