<svg width="16" height="16" viewBox="0 0 16 16" fill="none" xmlns="http://www.w3.org/2000/svg">
<path fill-rule="evenodd" clip-rule="evenodd" d="M12.5 10.9408C12.5 10.3128 12.084 9.76551 11.4873 9.60885L10.764 9.42284C10.69 9.40284 10.6253 9.35885 10.5753 9.29285C10.5267 9.22885 10.5 9.14551 10.5 9.05885C10.5 8.85284 10.6533 8.68484 10.8427 8.68484H11.1573C11.3313 8.68484 11.4773 8.82751 11.498 9.01684C11.5273 9.29084 11.7707 9.48751 12.0493 9.45951C12.3233 9.43018 12.522 9.18351 12.492 8.90884C12.4293 8.32818 12.0193 7.87151 11.49 7.73285V7.66618C11.49 7.39018 11.266 7.16618 10.99 7.16618C10.714 7.16618 10.49 7.39018 10.49 7.66618V7.73884C9.92133 7.89884 9.5 8.42685 9.5 9.05885C9.5 9.36284 9.59933 9.66085 9.778 9.89551C9.95933 10.1382 10.22 10.3142 10.5127 10.3902L11.236 10.5768C11.3913 10.6175 11.5 10.7675 11.5 10.9408C11.5 11.0428 11.462 11.1388 11.3933 11.2102C11.3553 11.2495 11.2753 11.3148 11.1573 11.3148H10.8427C10.6687 11.3148 10.5227 11.1722 10.502 10.9828C10.472 10.7082 10.23 10.5102 9.95067 10.5395C9.67667 10.5695 9.478 10.8162 9.508 11.0908C9.57 11.6635 9.97 12.1155 10.49 12.2608V12.3328C10.49 12.6088 10.714 12.8328 10.99 12.8328C11.266 12.8328 11.49 12.6088 11.49 12.3328V12.2668C11.7227 12.2055 11.938 12.0855 12.1127 11.9048C12.3627 11.6455 12.5 11.3028 12.5 10.9408ZM15 9.99951C15 12.2055 13.206 13.9995 11 13.9995C8.794 13.9995 7 12.2055 7 9.99951C7 7.79418 8.794 5.99951 11 5.99951C13.206 5.99951 15 7.79418 15 9.99951Z" fill="#558BED"/>
<path fill-rule="evenodd" clip-rule="evenodd" d="M7.00183 7.0001H1.47745C1.10339 7.0001 0.799805 7.4033 0.799805 7.9001C0.799805 8.3969 1.10339 8.8001 1.47745 8.8001H6.14524C6.30869 8.13879 6.6041 7.52889 7.00183 7.0001ZM6.61437 12.4001H1.4843C1.10646 12.4001 0.799805 12.8033 0.799805 13.3001C0.799805 13.7969 1.10646 14.2001 1.4843 14.2001H7.64472C7.79383 14.2001 7.93186 14.1373 8.04432 14.0307C7.45708 13.5991 6.96723 13.0423 6.61437 12.4001ZM0.799805 2.5001C0.799805 2.0033 1.10339 1.6001 1.47745 1.6001H13.6751C14.0492 1.6001 14.3527 2.0033 14.3527 2.5001C14.3527 2.9969 14.0492 3.4001 13.6751 3.4001H1.47745C1.10339 3.4001 0.799805 2.9969 0.799805 2.5001Z" fill="#999999"/>
</svg>
