<svg width="44" height="44" viewBox="0 0 44 44" fill="none" xmlns="http://www.w3.org/2000/svg">
<circle opacity="0.1" cx="22" cy="22" r="22" fill="url(#paint0_linear_2337_6714)"/>
<path d="M28.8811 11H15.1311C12.3811 11 11 12.3689 11 15.1189V28.8689C11 31.6189 12.3811 33 15.1311 33H28.8811C31.6311 33 33 31.6189 33 28.8689V15.1189C33 12.3689 31.6311 11 28.8811 11ZM19.25 24.0656C19.6167 24.42 19.6167 25.0067 19.25 25.3611C19.0789 25.5444 18.8344 25.63 18.6022 25.63C18.37 25.63 18.1378 25.5444 17.9544 25.3611L15.2411 22.6478C14.8867 22.2933 14.8867 21.7067 15.2411 21.3522L17.9544 18.6389C18.3089 18.2722 18.8956 18.2722 19.25 18.6389C19.6167 18.9933 19.6167 19.58 19.25 19.9344L17.1844 22L19.25 24.0656ZM24.1144 17.3311L21.67 27.1089C21.56 27.5244 21.1933 27.8056 20.7778 27.8056C20.7044 27.8056 20.6311 27.7933 20.5578 27.7811C20.0689 27.6589 19.7633 27.1578 19.8856 26.6689L22.33 16.8911C22.4522 16.4022 22.9533 16.0967 23.4422 16.2189C23.9311 16.3411 24.2367 16.8422 24.1144 17.3311ZM28.7589 22.6478L26.0456 25.3611C25.8622 25.5444 25.63 25.63 25.3978 25.63C25.1656 25.63 24.9211 25.5444 24.75 25.3611C24.3833 25.0067 24.3833 24.42 24.75 24.0656L26.8156 22L24.75 19.9344C24.3833 19.58 24.3833 18.9933 24.75 18.6389C25.1044 18.2722 25.6911 18.2722 26.0456 18.6389L28.7589 21.3522C29.1133 21.7067 29.1133 22.2933 28.7589 22.6478Z" fill="#333333"/>
<defs>
<linearGradient id="paint0_linear_2337_6714" x1="-5.67091e-08" y1="27.1944" x2="39.3862" y2="27.3647" gradientUnits="userSpaceOnUse">
<stop stop-color="#00FF59"/>
<stop offset="1" stop-color="#AA6CFF"/>
</linearGradient>
</defs>
</svg>
