<svg width="44" height="44" viewBox="0 0 44 44" fill="none" xmlns="http://www.w3.org/2000/svg">
<circle opacity="0.1" cx="22" cy="22" r="22" fill="url(#paint0_linear_2337_6705)"/>
<path d="M23.3889 24.2222C23.3889 26.2111 25.0111 27.8333 27 27.8333H32V28.6667C32 30.8889 30.8889 32 28.6667 32H15.3333C13.1111 32 12 30.8889 12 28.6667V14.2222C12 15.4444 13 16.4444 14.2222 16.4444H28.6667C30.8889 16.4444 32 17.5556 32 19.7778V20.6111H27C25.0111 20.6111 23.3889 22.2333 23.3889 24.2222ZM27 22.2778C25.9333 22.2778 25.0556 23.1556 25.0556 24.2222C25.0556 25.2889 25.9333 26.1667 27 26.1667H32V22.2778H27ZM27.5778 25.3333C26.9667 25.3333 26.4556 24.8333 26.4556 24.2222C26.4556 23.6111 26.9556 23.1111 27.5667 23.1111H27.5778C28.1889 23.1111 28.6889 23.6111 28.6889 24.2222C28.6889 24.8333 28.1889 25.3333 27.5778 25.3333ZM25.3333 12H15.0556C14.2889 12 13.6667 12.6222 13.6667 13.3889C13.6667 14.1556 14.2889 14.7778 15.0556 14.7778H28.6333C28.4666 12.9222 27.3667 12 25.3333 12Z" fill="#333333"/>
<defs>
<linearGradient id="paint0_linear_2337_6705" x1="-5.67091e-08" y1="27.1944" x2="39.3862" y2="27.3647" gradientUnits="userSpaceOnUse">
<stop stop-color="#00FF59"/>
<stop offset="1" stop-color="#AA6CFF"/>
</linearGradient>
</defs>
</svg>
