<svg width="61" height="18" viewBox="0 0 61 18" fill="none" xmlns="http://www.w3.org/2000/svg">
<path d="M0 17.6245L5.50931 2.0491H8.41229L13.9216 17.6245H10.9127L9.95914 14.8508H3.96246L3.00893 17.6245H0ZM6.9714 6.16697L4.93719 12.0771H9.0056L6.9714 6.16697ZM17.1382 17.6245L12.4129 5.14284H15.4006L18.6003 13.9333L21.7363 5.14284H24.6817L20.02 17.6245H17.1382ZM30.9266 17.8805C27.0277 17.8805 24.379 15.0215 24.379 11.4157C24.379 7.76718 27.1972 4.8868 30.8206 4.8868C34.5076 4.8868 37.1987 7.61783 37.1987 11.309V12.3971H27.1124C27.515 14.168 28.8924 15.3415 30.9266 15.3415C32.537 15.3415 33.766 14.4881 34.3593 13.1439L36.7113 14.5094C35.6307 16.5363 33.7236 17.8805 30.9266 17.8805ZM30.8206 7.4258C29.1043 7.4258 27.7693 8.44994 27.2608 9.98614H34.2957C33.8719 8.30058 32.6005 7.4258 30.8206 7.4258ZM38.1202 16.1523C38.1202 15.1068 38.7771 14.4027 39.8577 14.4027C40.9384 14.4027 41.5741 15.1068 41.5741 16.1523C41.5741 17.1764 40.9172 17.8805 39.8365 17.8805C38.7559 17.8805 38.1202 17.1764 38.1202 16.1523ZM48.5672 17.8805C45.5795 17.8805 42.4646 15.4909 42.4646 11.3943C42.4646 7.25511 45.4735 4.8868 48.6096 4.8868C50.2412 4.8868 51.6821 5.54822 52.5933 6.63637V5.14284H55.4539V17.6245H52.5933V16.0029C51.6821 17.1764 50.1988 17.8805 48.5672 17.8805ZM49.0334 15.2348C51.1735 15.2348 52.7416 13.5066 52.7416 11.3517C52.7416 9.21804 51.1735 7.51115 49.0334 7.51115C46.9144 7.51115 45.2828 9.1967 45.2828 11.3517C45.2828 13.5279 46.9144 15.2348 49.0334 15.2348ZM57.0833 17.6245V5.14284H59.9651V17.6245H57.0833ZM56.7231 2.09177C56.7231 1.00363 57.4224 0.278198 58.5242 0.278198C59.6473 0.278198 60.3254 1.00363 60.3254 2.09177C60.3254 3.17991 59.6473 3.884 58.5242 3.884C57.3588 3.884 56.7231 3.17991 56.7231 2.09177Z" fill="white"/>
</svg>
