<svg width="18" height="16" viewBox="0 0 18 16" fill="none" xmlns="http://www.w3.org/2000/svg">
<path d="M14.6622 12.8981L13.9215 11.6503H3.277L8.60755 2.4275L7.21568 0H5.41949C5.03379 0.000865627 4.65523 0.104095 4.32249 0.299144C3.98974 0.494193 3.71473 0.774071 3.52554 1.11019L0.304343 6.79369C0.117048 7.12174 0.0185394 7.49297 0.0185394 7.87073C0.0185394 8.24849 0.117048 8.61972 0.304343 8.94778L2.55952 12.9246L3.52554 14.628C3.69113 14.9201 3.9221 15.17 4.20037 15.358C4.47864 15.546 4.79666 15.6671 5.12952 15.7116C5.22504 15.725 5.32138 15.7316 5.41784 15.7315H11.789C12.1746 15.7317 12.5533 15.6297 12.8866 15.4359C13.2199 15.242 13.4958 14.9632 13.6862 14.628L14.6457 12.9246L14.6622 12.8981Z" fill="url(#paint0_linear_7682_14402)"/>
<path d="M13.9216 11.6509H3.29691L3.34164 11.6244L6.9075 9.48023C7.45762 9.12232 7.87187 8.91354 8.26127 8.8456C8.27009 8.84481 8.27896 8.84481 8.28778 8.8456L8.364 8.83566L8.49656 8.82571H8.5761C8.63983 8.82745 8.70343 8.83243 8.76665 8.84063C9.17262 8.89531 9.60841 9.09746 10.2016 9.44046L13.9017 11.6376L13.9216 11.6509Z" fill="url(#paint1_linear_7682_14402)"/>
<path d="M14.6618 12.8982L14.6435 12.9297L13.6825 14.6265C13.4928 14.9617 13.2176 15.2405 12.8848 15.4344C12.552 15.6283 12.1737 15.7303 11.7885 15.73H5.41739C5.32093 15.7301 5.22459 15.7235 5.12907 15.7101C4.79566 15.6659 4.47703 15.5451 4.19817 15.357C3.91931 15.169 3.68779 14.919 3.52178 14.6265L2.55907 12.9247L3.29477 11.6521L3.33288 11.629L6.90537 9.47486C7.45715 9.11695 7.86974 8.90651 8.26079 8.84023C8.26961 8.83944 8.27849 8.83944 8.2873 8.84023L8.36353 8.83029L8.49609 8.82034H8.57562C8.63935 8.82208 8.70295 8.82706 8.76618 8.83526C9.17214 8.88994 9.60627 9.09375 10.1995 9.43509L13.9012 11.6372L13.9228 11.6505L14.6618 12.8982Z" fill="url(#paint2_linear_7682_14402)"/>
<g opacity="0.5">
<path d="M10.1899 9.43459C8.78473 8.61604 8.25946 8.59118 6.89575 9.47933L3.28516 11.65L6.89575 9.94163C8.25946 9.05183 8.77976 9.08331 10.1899 9.89524L13.9115 11.6517L10.1899 9.43459Z" fill="url(#paint3_linear_7682_14402)"/>
</g>
<path d="M16.9043 8.94778L14.6458 12.9246L14.664 12.8931L13.9217 11.6503L8.61931 2.4159V2.4275L7.21584 0H11.7908C12.1767 0.00108473 12.5554 0.104391 12.8884 0.299402C13.2213 0.494414 13.4967 0.774168 13.6864 1.11019L16.9043 6.79369C17.0908 7.12201 17.1888 7.49314 17.1888 7.87073C17.1888 8.24833 17.0908 8.61946 16.9043 8.94778Z" fill="url(#paint4_linear_7682_14402)"/>
<path d="M0.285804 8.94778L2.54595 12.9246L2.52772 12.8931L3.2684 11.6454L8.57079 2.41093V2.42253L9.97758 0H5.40095C5.01525 0.000865627 4.63669 0.104095 4.30395 0.299144C3.9712 0.494193 3.69619 0.774071 3.507 1.11019L0.285804 6.79369C0.0985089 7.12174 0 7.49297 0 7.87073C0 8.24849 0.0985089 8.61972 0.285804 8.94778Z" fill="url(#paint5_linear_7682_14402)"/>
<path opacity="0.51" d="M9.97764 0L8.5957 2.4043L8.85254 2.81358L9.97764 0Z" fill="url(#paint6_linear_7682_14402)"/>
<defs>
<linearGradient id="paint0_linear_7682_14402" x1="12.7943" y1="14.333" x2="0.355931" y2="5.37955" gradientUnits="userSpaceOnUse">
<stop stop-color="#8B4FDD"/>
<stop offset="1" stop-color="#12B886"/>
</linearGradient>
<linearGradient id="paint1_linear_7682_14402" x1="12.5663" y1="11.3997" x2="11.1176" y2="7.18676" gradientUnits="userSpaceOnUse">
<stop stop-color="#8B4FDD"/>
<stop offset="1" stop-color="#12B886"/>
</linearGradient>
<linearGradient id="paint2_linear_7682_14402" x1="13.1179" y1="15.1158" x2="7.61223" y2="7.65835" gradientUnits="userSpaceOnUse">
<stop stop-color="#8B4FDD"/>
<stop offset="1" stop-color="#12B886"/>
</linearGradient>
<linearGradient id="paint3_linear_7682_14402" x1="12.556" y1="11.3997" x2="11.0987" y2="7.17532" gradientUnits="userSpaceOnUse">
<stop stop-color="#8B4FDD"/>
<stop offset="1" stop-color="#12B886"/>
</linearGradient>
<linearGradient id="paint4_linear_7682_14402" x1="15.9167" y1="11.7756" x2="6.43303" y2="6.11665" gradientUnits="userSpaceOnUse">
<stop stop-color="#8B4FDD"/>
<stop offset="1" stop-color="#12B886"/>
</linearGradient>
<linearGradient id="paint5_linear_7682_14402" x1="8.70483" y1="11.7756" x2="-0.780886" y2="6.11283" gradientUnits="userSpaceOnUse">
<stop stop-color="#8B4FDD"/>
<stop offset="1" stop-color="#12B886"/>
</linearGradient>
<linearGradient id="paint6_linear_7682_14402" x1="9.80136" y1="2.56346" x2="8.244" y2="1.97194" gradientUnits="userSpaceOnUse">
<stop stop-color="#8B4FDD"/>
<stop offset="1" stop-color="#12B886"/>
</linearGradient>
</defs>
</svg>
