<svg width="31" height="30" viewBox="0 0 31 30" fill="none" xmlns="http://www.w3.org/2000/svg">
<ellipse cx="15.12" cy="15" rx="15.12" ry="15" fill="#333333" fill-opacity="0.2"/>
<path d="M8.07756 10.1717C8.07756 10.9474 9.08587 11.6454 10.7147 12.0332C12.3435 12.4211 14.3601 12.4211 15.9889 12.0332C17.6177 11.6454 18.626 10.9474 18.626 10.1717C18.626 9.00831 16.2216 8 13.3518 8C10.4044 8.07756 8.07756 9.00831 8.07756 10.1717ZM15.2909 14.8255C16.0665 14.205 16.8421 13.7396 18.3158 13.7396C18.5485 13.5069 18.626 13.3518 18.626 13.0416V11.0249C18.5485 12.1884 16.2216 13.1191 13.3518 13.1191C10.482 13.1191 8 12.1884 8 10.9474V12.8089C8 13.9723 10.4044 14.9806 13.2742 14.9806C14.1274 14.9806 14.6704 14.9806 15.2909 14.8255ZM8.07756 13.5845V15.446C8.07756 16.6094 10.482 17.6177 13.3518 17.6177H13.7396C13.8172 16.9972 14.1274 16.2992 14.5928 15.7562C14.1274 15.8338 13.8172 15.8338 13.3518 15.8338C10.4044 15.7562 8.07756 14.8255 8.07756 13.5845ZM13.3518 18.3934C10.4044 18.3934 8.07756 17.4626 8.07756 16.2992V18.1607C8.07756 19.3241 10.482 20.2548 13.3518 20.2548H14.0499C13.7396 19.7119 13.6621 19.0914 13.6621 18.3934H13.3518ZM20.9529 15.7562C19.5568 14.3601 17.2299 14.3601 15.7562 15.7562C14.3601 17.1524 14.3601 19.4792 15.7562 20.9529C17.1524 22.349 19.4792 22.349 20.9529 20.9529C22.349 19.5568 22.349 17.2299 20.9529 15.7562ZM19.169 19.2465C18.7812 19.6344 18.4709 20.0222 18.3158 20.3324C18.1607 20.0222 17.8504 19.6344 17.4626 19.2465C17.0748 18.8587 16.687 18.5485 16.3767 18.3934C16.687 18.2382 17.0748 17.928 17.4626 17.5402C17.8504 17.1524 18.1607 16.7645 18.3158 16.4543C18.4709 16.7645 18.7812 17.1524 19.169 17.5402C19.5568 17.928 19.9446 18.2382 20.2548 18.3934C19.9446 18.626 19.5568 18.9363 19.169 19.2465Z" fill="white"/>
</svg>
