<svg width="16" height="16" viewBox="0 0 16 16" fill="none" xmlns="http://www.w3.org/2000/svg">
<g clip-path="url(#clip0_8114_26422)">
<path d="M8.00001 16C7.1877 16 6.45744 15.5815 6.04719 14.8759C5.87488 14.5805 5.97334 14.2031 6.26872 14.0308C6.56411 13.8585 6.94154 13.9569 7.11385 14.2523C7.49129 14.9005 8.50872 14.9005 8.88616 14.2523C9.05847 13.9569 9.4359 13.8585 9.73129 14.0308C10.0267 14.2031 10.1251 14.5805 9.95283 14.8759C9.54257 15.5815 8.81231 16 8.00001 16ZM15.1221 13.1938C15.2205 12.9805 15.1959 12.7262 15.0482 12.5456C15.0318 12.5292 13.5385 10.6256 13.5385 8.41846V5.54667C13.5385 2.48615 11.0523 0 8.00001 0C4.9477 0 2.46154 2.48615 2.46154 5.53846V8.41026C2.46154 10.6174 0.968211 12.521 0.951801 12.5374C0.804108 12.7262 0.779493 12.9723 0.877955 13.1856C0.976416 13.399 1.19795 13.5303 1.4359 13.5303H14.5641C14.8021 13.5303 15.0154 13.3908 15.1221 13.1856V13.1938ZM3.69231 8.41026V5.53846C3.69231 3.16718 5.62052 1.23077 8.00001 1.23077C10.3795 1.23077 12.3077 3.15897 12.3077 5.53846V8.41026C12.3077 10.0021 12.9231 11.4133 13.4318 12.3077H2.57642C3.08513 11.4133 3.70052 10.0021 3.70052 8.41026H3.69231ZM1.23078 4.78359C1.37026 3.38051 1.93642 2.0841 2.8718 1.02564C3.09334 0.771282 3.06872 0.385641 2.81436 0.155897C2.56001 -0.065641 2.16616 -0.0410256 1.94462 0.213333C0.836929 1.46051 0.172314 2.99487 5.84614e-06 4.66051C-0.0328147 4.99692 0.213339 5.30051 0.549749 5.33333C0.574365 5.33333 0.590775 5.33333 0.61539 5.33333C0.927185 5.33333 1.19795 5.09538 1.23078 4.77538V4.78359ZM15.4421 5.33333C15.7785 5.30051 16.0246 4.99692 15.9918 4.66051C15.8277 3.00308 15.1549 1.46051 14.0554 0.213333C13.8339 -0.0410256 13.44 -0.065641 13.1856 0.155897C12.9313 0.377436 12.9067 0.771282 13.1282 1.02564C14.0636 2.0841 14.6298 3.38051 14.7692 4.78359C14.8021 5.10359 15.0646 5.34154 15.3846 5.34154C15.401 5.34154 15.4256 5.34154 15.4503 5.34154L15.4421 5.33333Z" fill="#3F80F7"/>
</g>
<defs>
<clipPath id="clip0_8114_26422">
<rect width="16" height="16" fill="white"/>
</clipPath>
</defs>
</svg>
