<svg width="16" height="16" viewBox="0 0 16 16" fill="none" xmlns="http://www.w3.org/2000/svg">
<path d="M15.8195 15.3331L12.6687 12.1015C13.719 10.8224 14.359 9.1645 14.359 7.36358C14.359 3.3073 11.1344 0 7.17949 0C3.22462 0 0 3.3073 0 7.36358C0 11.4199 3.22462 14.7272 7.17949 14.7272C8.93538 14.7272 10.5518 14.0707 11.799 12.9936L14.9497 16.2251C15.0728 16.3513 15.2287 16.4103 15.3846 16.4103C15.5405 16.4103 15.6964 16.3513 15.8195 16.2251C16.0574 15.9811 16.0574 15.5771 15.8195 15.3331ZM1.23077 7.36358C1.23077 3.99737 3.89744 1.26233 7.17949 1.26233C10.4615 1.26233 13.1282 3.99737 13.1282 7.36358C13.1282 10.7298 10.4615 13.4648 7.17949 13.4648C3.89744 13.4648 1.23077 10.7298 1.23077 7.36358Z" fill="white"/>
</svg>
