<svg width="31" height="30" viewBox="0 0 31 30" fill="none" xmlns="http://www.w3.org/2000/svg">
<ellipse cx="15.2479" cy="15" rx="15.12" ry="15" fill="#333333" fill-opacity="0.2"/>
<path d="M15.328 9.352C16.656 9.352 17.696 9.624 18.448 10.2C19.248 10.792 19.696 11.704 19.808 12.952H18.08C17.92 12.216 17.632 11.672 17.184 11.352C16.736 11.016 16.096 10.856 15.232 10.856C14.48 10.856 13.904 10.968 13.504 11.192C13.008 11.448 12.768 11.864 12.768 12.44C12.768 12.952 13.04 13.352 13.616 13.656C13.872 13.8 14.528 14.04 15.6 14.36C17.136 14.84 18.144 15.208 18.592 15.48C19.568 16.072 20.064 16.888 20.064 17.944C20.064 18.968 19.664 19.768 18.864 20.36C18.064 20.936 16.944 21.224 15.504 21.224C14.112 21.224 13.024 20.936 12.24 20.392C11.296 19.72 10.784 18.664 10.688 17.224H12.416C12.544 18.12 12.864 18.776 13.376 19.16C13.84 19.512 14.544 19.688 15.504 19.688C16.368 19.688 17.056 19.528 17.568 19.24C18.08 18.952 18.336 18.552 18.336 18.04C18.336 17.4 17.968 16.904 17.248 16.536C16.992 16.408 16.24 16.152 14.976 15.768C13.568 15.32 12.704 15.016 12.352 14.824C11.472 14.296 11.04 13.528 11.04 12.536C11.04 11.528 11.456 10.744 12.304 10.168C13.104 9.624 14.112 9.352 15.328 9.352Z" fill="white"/>
</svg>
