<svg width="31" height="30" viewBox="0 0 31 30" fill="none" xmlns="http://www.w3.org/2000/svg">
<ellipse cx="15.2479" cy="15" rx="15.12" ry="15" fill="#333333" fill-opacity="0.2"/>
<path d="M11.328 9.576H16.544C17.664 9.576 18.528 9.832 19.168 10.376C19.776 10.888 20.08 11.576 20.08 12.456C20.08 13.096 19.92 13.64 19.6 14.088C19.28 14.504 18.848 14.824 18.272 15.032C19.024 15.176 19.6 15.48 19.984 15.944C20.368 16.408 20.56 17.032 20.56 17.8C20.56 18.952 20.16 19.784 19.376 20.328C18.704 20.776 17.76 21 16.544 21H11.328V9.576ZM13.072 11.016V14.424H16.08C16.88 14.424 17.456 14.28 17.808 14.008C18.16 13.72 18.336 13.272 18.336 12.664C18.336 12.088 18.16 11.672 17.808 11.416C17.456 11.144 16.88 11.016 16.112 11.016H13.072ZM13.072 15.848V19.56H16.304C17.04 19.56 17.616 19.432 18.032 19.208C18.544 18.904 18.816 18.424 18.816 17.768C18.816 17.096 18.608 16.6 18.208 16.296C17.808 15.992 17.184 15.848 16.352 15.848H13.072Z" fill="white"/>
</svg>
