<svg width="20" height="20" viewBox="0 0 20 20" fill="none" xmlns="http://www.w3.org/2000/svg">
<path d="M19.4141 3.17188H18.8281V2.58594C18.8281 2.26234 18.5658 2 18.2422 2C17.9186 2 17.6563 2.26234 17.6563 2.58594V3.17188H6.44531H4.10156H1.75781C1.43422 3.17188 1.17188 3.43422 1.17188 3.75781C1.17188 4.0809 0.909024 4.34375 0.585938 4.34375C0.262344 4.34375 0 4.60609 0 4.92969V7.27344V8.44531C0 8.76891 0.262344 9.03125 0.585938 9.03125C0.897422 9.03125 1.15293 9.27555 1.1709 9.58262L0.196953 16.3998C0.0457031 17.4588 0.868477 18.4063 1.93711 18.4063H4.24223C5.12402 18.4063 5.87363 17.7467 5.98578 16.872L6.39004 13.7188H8.78625C8.78703 13.7188 8.78781 13.7189 8.7886 13.7189C8.79309 13.7189 8.79758 13.7185 8.80207 13.7184C9.76535 13.7114 10.5469 12.9258 10.5469 11.9609V10.2031H17.0703C17.2923 10.2031 17.4952 10.0777 17.5944 9.87922L18.6043 7.85938H19.4141C19.7377 7.85938 20 7.59703 20 7.27344V3.75781C20 3.43422 19.7377 3.17188 19.4141 3.17188ZM4.52391 4.34375H5.63234L4.85109 6.6875H3.74266L4.52391 4.34375ZM1.17188 5.41523C1.67063 5.2384 2.06652 4.8425 2.24336 4.34375H3.28863L2.50738 6.6875H1.17188V5.41523ZM7.03125 12.5469C6.38508 12.5469 5.85938 12.0212 5.85938 11.375C5.85938 10.7288 6.38508 10.2031 7.03125 10.2031H7.05621C6.81527 10.9783 6.90457 11.8271 7.33336 12.5469H7.03125ZM9.375 11.9609C9.375 12.2405 9.17809 12.4746 8.91578 12.5327C8.12254 12.0424 7.86141 11.0122 8.32649 10.2031H9.375V11.9609ZM16.7082 9.03125C16.0749 9.03125 7.43559 9.03125 7.03125 9.03125C5.73891 9.03125 4.6875 10.0827 4.6875 11.375C4.6875 11.9854 4.92227 12.5419 5.30594 12.9594L4.8234 16.723C4.78602 17.0145 4.53613 17.2344 4.24219 17.2344H1.93711C1.58 17.2344 1.30648 16.9195 1.35707 16.5656C2.40613 9.22227 2.34375 9.67926 2.34375 9.61719C2.34375 8.85328 1.85395 8.2016 1.17188 7.95977V7.85938C1.70758 7.85938 16.9589 7.85938 17.2941 7.85938L16.7082 9.03125ZM18.8281 6.6875C18.4219 6.6875 7.07109 6.6875 6.08641 6.6875L6.86766 4.34375H18.8281V6.6875Z" fill="currentColor"/>
</svg>
