<svg width="20" height="20" viewBox="0 0 20 20" fill="none" xmlns="http://www.w3.org/2000/svg">
<path d="M14.8281 0C17.4079 0 19.4999 2.0912 19.5 4.6709C19.5 6.89167 17.9503 8.74918 15.873 9.22363C16.0207 9.76015 16.1015 10.3244 16.1016 10.9072C16.1016 11.8373 15.8988 12.7215 15.5381 13.5186H16.4717C16.8859 13.5186 17.2216 13.8544 17.2217 14.2686C17.2217 14.6828 16.8859 15.0186 16.4717 15.0186H14.5869C14.5535 15.0578 14.5206 15.0974 14.4863 15.1357L14.0762 15.5938L15.6875 16.3994C16.0575 16.5848 16.2076 17.035 16.0225 17.4053C15.8372 17.7753 15.3869 17.9259 15.0166 17.7412L13.041 16.7529L11.1455 18.875L11.1436 18.873C11.1199 18.8995 11.0974 18.927 11.0723 18.9521C10.7339 19.2906 10.2664 19.4999 9.75 19.5C9.23363 19.4999 8.76615 19.2906 8.42773 18.9521C8.4028 18.9272 8.37995 18.9003 8.35645 18.874L8.35547 18.875L6.45898 16.7529L4.4834 17.7412C4.11315 17.9259 3.66279 17.7753 3.47754 17.4053C3.29237 17.0348 3.44308 16.5847 3.81348 16.3994L5.42285 15.5938L5.01367 15.1357C4.97938 15.0974 4.94646 15.0578 4.91309 15.0186H3.02832C2.61411 15.0186 2.27832 14.6828 2.27832 14.2686C2.27839 13.8544 2.61415 13.5186 3.02832 13.5186H3.96191C3.60115 12.7215 3.39844 11.8373 3.39844 10.9072C3.39848 10.3245 3.47833 9.76008 3.62598 9.22363C1.54945 8.74868 0 6.89119 0 4.6709C0.00014242 2.09129 2.09129 0.000142208 4.6709 0C7.217 0 9.28615 2.03708 9.33984 4.57031C9.47546 4.56163 9.61223 4.55567 9.75 4.55566C9.88747 4.55567 10.0239 4.56167 10.1592 4.57031C10.2128 2.03731 12.2823 0.000384479 14.8281 0ZM9.75 6.05566C7.07584 6.05572 4.89869 8.23312 4.89844 10.9072C4.89844 12.1454 5.36421 13.2764 6.13184 14.1357L8.25391 16.5107C8.27149 16.4873 8.288 16.463 8.30664 16.4404C8.64964 16.0247 9.16896 15.7598 9.75 15.7598C10.331 15.7598 10.8504 16.0247 11.1934 16.4404C11.2119 16.4629 11.2276 16.4874 11.2451 16.5107L13.3682 14.1357C14.1358 13.2764 14.6016 12.1454 14.6016 10.9072C14.6013 8.23311 12.4242 6.05571 9.75 6.05566ZM4.6709 1.5C2.91972 1.50014 1.50014 2.91972 1.5 4.6709C1.5 6.26485 2.67645 7.58333 4.20801 7.80762C4.99098 6.41321 6.2845 5.34275 7.83398 4.85156C7.83741 4.79172 7.84277 4.73161 7.84277 4.6709C7.84263 2.91963 6.4222 1.5 4.6709 1.5ZM14.8281 1.5C13.0772 1.50039 11.6574 2.91987 11.6572 4.6709C11.6572 4.73158 11.6618 4.79174 11.665 4.85156C13.2147 5.34259 14.5079 6.41314 15.291 7.80762C16.8232 7.58381 18 6.26524 18 4.6709C17.9999 2.91963 16.5794 1.5 14.8281 1.5Z" fill="currentColor"/>
<path d="M12.551 12.028C12.551 12.3374 12.3002 12.5882 11.9908 12.5882C11.6815 12.5882 11.4307 12.3374 11.4307 12.028C11.4307 11.7186 11.6815 11.4678 11.9908 11.4678C12.3002 11.4678 12.551 11.7186 12.551 12.028Z" fill="currentColor"/>
<path d="M8.06955 12.028C8.06955 12.3374 7.81876 12.5882 7.50938 12.5882C7.20001 12.5882 6.94922 12.3374 6.94922 12.028C6.94922 11.7186 7.20001 11.4678 7.50938 11.4678C7.81876 11.4678 8.06955 11.7186 8.06955 12.028Z" fill="currentColor"/>
</svg>
