<svg width="20" height="20" viewBox="0 0 20 20" fill="none" xmlns="http://www.w3.org/2000/svg">
<path d="M9.99984 1C11.5228 0.999937 13.0141 1.44002 14.2985 2.26854C15.5829 3.09706 16.6071 4.27958 17.2506 5.67713C17.8942 7.07468 18.1304 8.62919 17.9315 10.158C17.7325 11.6868 17.1068 13.1263 16.1277 14.3074C17.2432 15.0544 17.9348 16.0084 17.9952 17.0515L17.9997 17.2L9.99984 19L2.00001 17.2L2.00445 17.0515C2.06401 16.0075 2.75644 15.0535 3.87108 14.3065C2.66 12.849 1.9972 11.0047 2.00001 9.1C2.00001 6.95175 2.84285 4.89148 4.34311 3.37243C5.84336 1.85339 7.87815 1 9.99984 1ZM9.99984 2.8C8.34964 2.8 6.76703 3.46375 5.60016 4.64523C4.43329 5.82671 3.77775 7.42914 3.77775 9.1C3.77775 10.5103 4.23463 11.845 5.06217 12.9349L5.23283 13.15L6.51547 14.6953L4.77151 15.8644L4.64973 15.9517L9.99984 17.1559L15.3491 15.9517L15.3055 15.9193L15.1473 15.8086L13.4842 14.6953L14.7669 13.1491C15.7093 12.016 16.2248 10.5814 16.2219 9.1C16.2219 7.42914 15.5664 5.82671 14.3995 4.64523C13.2327 3.46375 11.65 2.8 9.99984 2.8ZM9.99984 10.9C11.2265 10.9 12.222 11.5048 12.222 12.25C12.222 12.9952 11.2265 13.6 9.99984 13.6C8.7732 13.6 7.77766 12.9952 7.77766 12.25C7.77766 11.5048 8.7732 10.9 9.99984 10.9ZM7.33323 6.4C8.31543 6.4 9.11097 7.0048 9.11097 7.75C9.11097 8.4952 8.31543 9.1 7.33323 9.1C6.35103 9.1 5.55549 8.4952 5.55549 7.75C5.55549 7.0048 6.35103 6.4 7.33323 6.4ZM12.6664 6.4C13.6487 6.4 14.4442 7.0048 14.4442 7.75C14.4442 8.4952 13.6487 9.1 12.6664 9.1C11.6842 9.1 10.8887 8.4952 10.8887 7.75C10.8887 7.0048 11.6842 6.4 12.6664 6.4Z" fill="currentColor"/>
</svg>
