<svg width="20" height="20" viewBox="0 0 20 20" fill="none" xmlns="http://www.w3.org/2000/svg">
<path d="M19.842 1.88696L19.7292 1.39325L18.6349 1.36512L18.6068 0.270825L18.1131 0.158051C16.9154 -0.115504 15.2257 -0.0303868 13.593 0.385669C12.3769 0.695591 10.7036 1.31559 9.17667 2.54411C7.6796 2.5827 5.45784 3.58841 4.27081 4.77548C3.95151 5.09478 3.79554 5.50302 3.81972 5.95619C3.8512 6.54658 4.19526 7.21158 4.84229 7.93271C4.96936 8.07435 5.09538 8.20369 5.21124 8.31717C4.81769 9.54053 4.67784 10.7032 4.71917 11.7092C2.9569 11.5811 1.00792 12.2196 0.318505 13.0018C0.0154578 13.3456 -0.0768469 13.7536 0.0653406 14.1212C0.33327 14.8137 1.06999 14.9459 1.78253 15.0738C2.51347 15.205 3.34202 15.3537 3.99413 16.0059C4.64624 16.658 4.79495 17.4865 4.92616 18.2175C5.05401 18.93 5.18628 19.6667 5.87878 19.9346C5.99198 19.9784 6.10905 20 6.22694 20C6.49167 20 6.7603 19.8912 6.99819 19.6815C7.78038 18.992 8.4189 17.0432 8.29081 15.2808C8.40319 15.2854 8.51753 15.2878 8.6337 15.2878C9.55737 15.2878 10.5963 15.1382 11.683 14.7886C11.8009 14.9097 11.9371 15.0429 12.0866 15.1771C12.8077 15.8241 13.4728 16.1682 14.0632 16.1996C14.0936 16.2013 14.1239 16.2021 14.1539 16.2021C14.5708 16.2021 14.946 16.0463 15.2439 15.7485C16.4427 14.5496 17.4567 12.2955 17.4762 10.7983C18.6915 9.27818 19.3061 7.61635 19.6143 6.40693C20.0304 4.77439 20.1155 3.08466 19.842 1.88696ZM5.12214 5.88685C5.11768 5.80408 5.13632 5.75458 5.19308 5.69779C5.74022 5.15072 6.59729 4.63126 7.44909 4.28263C6.71823 5.17083 6.15659 6.0806 5.73811 6.97705C5.40636 6.59072 5.13768 6.17822 5.12214 5.88685ZM14.3216 14.8263C14.2649 14.883 14.2153 14.9014 14.133 14.8973C13.8378 14.8819 13.4152 14.6029 13.0219 14.2622C13.9324 13.8374 14.8565 13.265 15.7579 12.5176C15.4093 13.3866 14.88 14.2679 14.3216 14.8263ZM18.3505 6.08486C18.2299 6.55802 18.0569 7.10853 17.8104 7.69068C16.4148 7.51877 15.1157 6.88732 14.1142 5.88576C13.4044 5.17599 12.8873 4.33622 12.577 3.38978L11.3376 3.79607C11.7123 4.9388 12.3361 5.95216 13.192 6.80802C14.2901 7.90619 15.6851 8.63514 17.1945 8.91447C16.8331 9.52514 16.3812 10.1364 15.8164 10.7012C14.5509 11.9665 13.0631 12.9231 11.5137 13.4674C10.1726 13.9386 8.79112 14.0946 7.62374 13.9067L6.6494 13.7499L6.88718 14.7077C7.06632 15.4293 7.03433 16.3634 6.79944 17.2703C6.6478 17.8559 6.45722 18.2563 6.30921 18.4875C6.27206 18.3338 6.23812 18.1443 6.20987 17.987C6.06128 17.159 5.85772 16.0249 4.91636 15.0835C3.97499 14.1422 2.84093 13.9386 2.01292 13.79C1.85557 13.7618 1.66612 13.7278 1.51237 13.6907C1.74362 13.5427 2.14397 13.3521 2.72964 13.2005C3.63655 12.9655 4.57058 12.9335 5.29218 13.1127L6.24999 13.3505L6.09323 12.3762C5.90538 11.2088 6.0614 9.82733 6.53249 8.48619C7.07679 6.93677 8.03335 5.44896 9.29878 4.18353C10.8046 2.67766 12.6403 1.9743 13.9151 1.64934C15.3001 1.29637 16.5098 1.25493 17.3298 1.34794L17.3629 2.63688L18.6518 2.67001C18.7449 3.49028 18.7034 4.69997 18.3505 6.08486Z" fill="currentColor"/>
</svg>
