<svg width="16" height="18" viewBox="0 0 16 18" fill="none" xmlns="http://www.w3.org/2000/svg">
<path d="M11.9506 3.85389L12.7872 2.44618C13.0871 1.94033 13.0944 1.33197 12.8064 0.818735C12.5184 0.305504 11.9982 0 11.4148 0H4.58516C4.00093 0 3.4807 0.306427 3.19361 0.818735C2.90652 1.33197 2.91293 1.94033 3.21373 2.44618L4.04936 3.85389C1.36227 6.35728 0 9.01754 0 11.7692C0 13.2305 0.576914 18 8 18C15.4231 18 16 13.2305 16 11.7692C16 9.01754 14.6386 6.35728 11.9506 3.85389ZM4.38675 1.5009C4.41143 1.45752 4.46996 1.38462 4.58516 1.38462H11.4148C11.53 1.38462 11.5886 1.45844 11.6133 1.5009C11.6379 1.54429 11.6699 1.63389 11.6105 1.73359L10.6834 3.29443H5.31657L4.38948 1.73359C4.33005 1.63389 4.36206 1.54521 4.38675 1.5009ZM8 16.6154C2.01783 16.6154 1.37143 13.2268 1.37143 11.7692C1.37143 9.35262 2.66514 6.96918 5.19771 4.67995H10.8023C13.3358 6.96918 14.6286 9.35262 14.6286 11.7692C14.6286 13.2268 13.9822 16.6154 8 16.6154ZM8.74788 10.3228L7.59132 10.0283C7.44504 9.98955 7.3207 9.9065 7.22561 9.78189C7.1351 9.66466 7.08571 9.5132 7.08571 9.3572C7.08571 8.97597 7.38286 8.6668 7.74858 8.6668H8.25234C8.58972 8.6668 8.87223 8.93082 8.91063 9.28159C8.95177 9.6619 9.28549 9.93325 9.66766 9.89355C10.0443 9.85202 10.315 9.50863 10.2738 9.12924C10.1751 8.2274 9.52229 7.52026 8.68571 7.3338V7.15385C8.68571 6.77169 8.37851 6.46154 8 6.46154C7.62149 6.46154 7.31429 6.77169 7.31429 7.15385V7.33199C6.40091 7.53599 5.71429 8.36489 5.71429 9.3572C5.71429 9.81966 5.86696 10.272 6.1385 10.6264C6.4137 10.991 6.80778 11.2542 7.25212 11.3696L8.40868 11.664C8.70673 11.7415 8.91429 12.0176 8.91429 12.3351C8.91429 12.5197 8.8439 12.6942 8.71498 12.8262C8.58973 12.9554 8.42514 13.0255 8.25142 13.0255H7.74766C7.41028 13.0255 7.12777 12.7615 7.08937 12.4107C7.04731 12.0304 6.7136 11.7572 6.33234 11.7988C5.95565 11.8403 5.68503 12.1837 5.72617 12.5631C5.82491 13.4649 6.47771 14.172 7.31429 14.3585V14.5385C7.31429 14.9206 7.62149 15.2308 8 15.2308C8.37851 15.2308 8.68571 14.9206 8.68571 14.5385V14.3603C9.06423 14.2763 9.41258 14.0852 9.69236 13.7982C10.0745 13.4068 10.2857 12.8871 10.2857 12.336C10.2857 11.3852 9.65485 10.5581 8.74788 10.3228Z" fill="#FFA622"/>
</svg>
