<svg width="12" height="12" viewBox="0 0 12 12" fill="none" xmlns="http://www.w3.org/2000/svg">
<path d="M6.54545 8.6336V9.73333H9.27273V10.8H2.72727V9.73333H5.45455V8.6336C4.40002 8.50358 3.43027 8.00174 2.72727 7.22226C2.02428 6.44279 1.63638 5.43926 1.63636 4.4V1.2H10.3636V4.4C10.3636 5.43926 9.97572 6.44279 9.27273 7.22226C8.56973 8.00174 7.59998 8.50358 6.54545 8.6336ZM2.72727 2.26666V4.4C2.72727 5.24869 3.07208 6.06262 3.68583 6.66274C4.29959 7.26286 5.13202 7.6 6 7.6C6.86798 7.6 7.70041 7.26286 8.31417 6.66274C8.92792 6.06262 9.27273 5.24869 9.27273 4.4V2.26666H2.72727ZM0 2.26666H1.09091V4.4H0V2.26666ZM10.9091 2.26666H12V4.4H10.9091V2.26666Z" fill="#FFA622"/>
</svg>
