<svg width="20" height="20" viewBox="0 0 20 20" fill="none" xmlns="http://www.w3.org/2000/svg">
<path d="M17.441 10.1288L15.1401 12.4593C15.138 12.4614 15.1338 12.4658 15.1248 12.4658C15.1158 12.4658 15.1115 12.4614 15.1094 12.4593L15.0611 12.4104C15.2972 11.9525 15.335 11.4165 15.1753 10.9334C15.2055 10.9212 15.2359 10.9099 15.2668 10.9003C16.0799 10.6487 16.831 10.1903 17.439 9.57445C19.425 7.5628 19.485 4.35034 17.5728 2.41349C17.5453 2.38559 17.5174 2.35805 17.4889 2.33063C16.5586 1.43336 15.3226 0.96186 14.0071 1.00241C12.7022 1.04289 11.4651 1.58454 10.5237 2.52765C9.88333 3.16914 9.41499 3.96623 9.16927 4.83267C9.16826 4.8362 9.167 4.83966 9.16594 4.84319C8.66919 4.67319 8.11548 4.72105 7.65086 4.98648L7.62347 4.95874C6.13831 3.45433 3.72155 3.45429 2.23624 4.95874L0 7.22388L2.55897 9.81591L4.85985 7.48534C4.86192 7.48324 4.86616 7.47891 4.87517 7.47891C4.88418 7.47891 4.88845 7.48324 4.89052 7.48534L5.07011 7.66724C4.8698 8.1085 4.84641 8.61241 4.99963 9.06843C4.99367 9.0703 4.98784 9.07244 4.98184 9.07419C4.12632 9.32307 3.33939 9.7975 2.70611 10.4461C1.77506 11.3997 1.24027 12.6527 1.20035 13.9745C1.16012 15.3064 1.62576 16.5589 2.51168 17.5013C2.53872 17.5301 2.5659 17.5583 2.59333 17.586C3.52579 18.5305 4.7574 19 6.00527 19C7.31653 19 8.64557 18.4814 9.6632 17.4506C10.2712 16.8348 10.7238 16.074 10.9721 15.2504C10.9823 15.2166 10.9945 15.1833 11.0077 15.1504C11.2012 15.2164 11.4032 15.2498 11.6054 15.2498C11.8927 15.2498 12.1798 15.1826 12.4422 15.0493C13.1763 15.7586 14.1228 16.1143 15.0701 16.1143C16.0455 16.1143 17.0211 15.7382 17.7637 14.986L20 12.7208L17.441 10.1288ZM11.3502 3.37402C12.0797 2.6432 13.0361 2.22349 14.0431 2.1923C15.0412 2.16072 15.9775 2.51666 16.6785 3.19271C16.6999 3.21331 16.7208 3.23398 16.7416 3.25509C17.4413 3.96381 17.8147 4.92199 17.7928 5.95316C17.7708 6.99392 17.35 7.98104 16.608 8.73269C16.1356 9.21113 15.5531 9.56699 14.9234 9.76179C14.7692 9.80953 14.6205 9.87417 14.4811 9.95115L13.7069 9.16704C14.0061 8.95471 14.3382 8.78654 14.6575 8.69126C15.1057 8.55757 15.5194 8.30782 15.8539 7.96898C16.3964 7.41951 16.6972 6.66667 16.6791 5.9034C16.6617 5.16623 16.359 4.49062 15.8269 4.00099C15.3383 3.5514 14.695 3.30858 14.0201 3.32005C13.3516 3.33037 12.7069 3.58679 12.2047 4.0421C11.8073 4.40244 11.5196 4.86271 11.3726 5.37305C11.2747 5.7132 11.118 6.03879 10.9117 6.33577L10.1428 5.55698C10.2176 5.41139 10.2669 5.27401 10.2989 5.16135C10.4892 4.49042 10.8527 3.87242 11.3502 3.37402ZM11.752 7.18686C12.0926 6.7402 12.3481 6.23704 12.5009 5.7063C12.5864 5.40968 12.755 5.14088 12.9886 4.92906C13.5815 4.39149 14.4812 4.3709 15.0366 4.88207C15.3285 5.1506 15.4945 5.52345 15.5042 5.93189C15.5146 6.3712 15.3392 6.80687 15.0229 7.12721C14.8269 7.3257 14.5858 7.47169 14.3255 7.54931C13.8205 7.69998 13.3103 7.97005 12.8661 8.31536L11.752 7.18686ZM9.05347 6.137L13.8964 11.0425C14.1648 11.3143 14.1648 11.7566 13.8964 12.0284C13.6281 12.3003 13.1914 12.3003 12.9231 12.0284L8.08011 7.12293C7.81175 6.85111 7.81175 6.40882 8.08011 6.137C8.34846 5.86518 8.78512 5.86518 9.05347 6.137ZM4.87517 6.28847C4.55541 6.28847 4.25482 6.41461 4.02881 6.64358L2.55897 8.13235L1.66204 7.22388L3.06728 5.8005C4.09435 4.76021 5.76544 4.76025 6.79243 5.8005L6.86134 5.8703C6.76462 6.09383 6.71263 6.33243 6.70546 6.57235C6.41846 6.58116 6.1333 6.65647 5.87439 6.79845L5.72152 6.64362C5.49548 6.41461 5.19488 6.28847 4.87517 6.28847ZM8.83213 16.6089C8.09006 17.3605 7.11552 17.7868 6.08797 17.8091C5.06924 17.8304 4.12401 17.453 3.42417 16.7441C3.40348 16.7232 3.38303 16.702 3.36278 16.6805C2.69526 15.9703 2.34452 15.0223 2.37508 14.011C2.40591 12.9909 2.82023 12.0222 3.54174 11.2833C4.03375 10.7794 4.64391 10.4112 5.30634 10.2184C5.41963 10.1855 5.55828 10.1343 5.70503 10.0561L6.47295 10.8339C6.1778 11.0454 5.85382 11.206 5.5153 11.306C5.01138 11.4549 4.55698 11.7463 4.20126 12.1489C3.75176 12.6575 3.4986 13.3105 3.48846 13.9876C3.47811 14.673 3.71689 15.323 4.16072 15.8178C4.64411 16.3568 5.31108 16.6633 6.03885 16.681C6.06028 16.6815 6.08167 16.6818 6.10306 16.6818C6.83447 16.6818 7.55111 16.379 8.07815 15.8452C8.41271 15.5063 8.65928 15.0872 8.79123 14.6334C8.88603 14.3073 9.05402 13.9681 9.26608 13.6631L10.0394 14.4464C9.96145 14.59 9.8961 14.7434 9.84807 14.9026C9.65576 15.5404 9.30443 16.1304 8.83213 16.6089ZM8.42548 12.8116C8.08199 13.2632 7.8134 13.7828 7.66386 14.297C7.58723 14.5606 7.44311 14.8048 7.24711 15.0034C6.93088 15.3237 6.50022 15.502 6.06701 15.4908C5.66378 15.481 5.29572 15.3129 5.03062 15.0173C4.52591 14.4546 4.54628 13.5434 5.077 12.9428C5.28612 12.7062 5.55146 12.5353 5.84438 12.4488C6.3711 12.2932 6.87036 12.0325 7.31308 11.6848L8.42548 12.8116ZM11.1187 13.856L6.2757 8.95058C6.00735 8.67876 6.00735 8.23647 6.2757 7.96465C6.54406 7.69283 6.98071 7.69283 7.24907 7.96465L12.092 12.8702C12.3604 13.142 12.3604 13.5843 12.092 13.856C11.8237 14.1278 11.387 14.1279 11.1187 13.856ZM16.9327 14.1442C15.927 15.1629 14.304 15.1833 13.2728 14.207C13.3924 13.9649 13.4593 13.698 13.4675 13.4207C13.7241 13.4128 13.9792 13.3516 14.2154 13.2372L14.2784 13.3011C14.5045 13.5301 14.8051 13.6562 15.1248 13.6562C15.4445 13.6562 15.7451 13.5301 15.9712 13.3011L17.441 11.8123L18.3379 12.7208L16.9327 14.1442Z" fill="currentColor"/>
</svg>
