<svg width="44" height="44" viewBox="0 0 44 44" fill="none" xmlns="http://www.w3.org/2000/svg">
<circle opacity="0.1" cx="22" cy="22" r="22" fill="url(#paint0_linear_2337_6684)"/>
<path d="M27.3654 34.8344H16.5842C14.2873 34.8344 12.4186 32.9656 12.4186 30.6688V20.3688C12.4186 18.0719 14.2873 16.2031 16.5842 16.2031H27.3654C29.6623 16.2031 31.5311 18.0719 31.5311 20.3688V30.6688C31.5311 32.9656 29.6623 34.8344 27.3654 34.8344ZM34.5717 29.7375C33.8029 29.7375 33.1779 29.1125 33.1779 28.3438V22.6969C33.1779 21.9281 33.8029 21.3031 34.5717 21.3031C35.3404 21.3031 35.9654 21.9281 35.9654 22.6969V28.3438C35.9654 29.1156 35.3404 29.7375 34.5717 29.7375ZM9.49043 29.7375C8.72168 29.7375 8.09668 29.1125 8.09668 28.3438V22.6969C8.09668 21.9281 8.72168 21.3031 9.49043 21.3031C10.2592 21.3031 10.8842 21.9281 10.8842 22.6969V28.3438C10.8842 29.1156 10.2623 29.7375 9.49043 29.7375Z" fill="#333333"/>
<path d="M21.9748 18.9938C21.2061 18.9938 20.5811 18.3688 20.5811 17.6001V13.4782C20.5811 12.7095 21.2061 12.0845 21.9748 12.0845C22.7436 12.0845 23.3686 12.7095 23.3686 13.4782V17.6001C23.3686 18.3688 22.7436 18.9938 21.9748 18.9938Z" fill="#333333"/>
<path d="M21.9748 14.6438C20.4373 14.6438 19.1873 13.3938 19.1873 11.8563C19.1873 10.3188 20.4373 9.06885 21.9748 9.06885C23.5123 9.06885 24.7623 10.3188 24.7623 11.8563C24.7623 13.3938 23.5123 14.6438 21.9748 14.6438ZM18.4686 27.1095C17.5904 27.1095 16.8779 26.397 16.8779 25.5188C16.8779 24.6407 17.5904 23.9282 18.4686 23.9282C19.3467 23.9282 20.0592 24.6407 20.0592 25.5188C20.0592 26.397 19.3467 27.1095 18.4686 27.1095ZM25.4654 27.1095C24.5873 27.1095 23.8748 26.397 23.8748 25.5188C23.8748 24.6407 24.5873 23.9282 25.4654 23.9282C26.3436 23.9282 27.0561 24.6407 27.0561 25.5188C27.0561 26.397 26.3436 27.1095 25.4654 27.1095Z" fill="#333333"/>
<path d="M16.8779 25.5188C16.8779 26.397 17.5904 27.1095 18.4686 27.1095C19.3467 27.1095 20.0592 26.397 20.0592 25.5188C20.0592 24.6407 19.3467 23.9282 18.4686 23.9282C17.5904 23.9282 16.8779 24.6407 16.8779 25.5188Z" fill="#333333"/>
<path d="M23.8748 25.5188C23.8748 26.397 24.5873 27.1095 25.4654 27.1095C26.3436 27.1095 27.0561 26.397 27.0561 25.5188C27.0561 24.6407 26.3436 23.9282 25.4654 23.9282C24.5873 23.9282 23.8748 24.6407 23.8748 25.5188Z" fill="#333333"/>
<circle cx="18" cy="25" r="2" fill="#D9D9D9"/>
<circle cx="26" cy="25" r="2" fill="#D9D9D9"/>
<defs>
<linearGradient id="paint0_linear_2337_6684" x1="-5.67091e-08" y1="27.1944" x2="39.3862" y2="27.3647" gradientUnits="userSpaceOnUse">
<stop stop-color="#00FF59"/>
<stop offset="1" stop-color="#AA6CFF"/>
</linearGradient>
</defs>
</svg>
