<svg width="12" height="12" viewBox="0 0 12 12" fill="none" xmlns="http://www.w3.org/2000/svg">
<path fill-rule="evenodd" clip-rule="evenodd" d="M2.99131 2.7406H2.1977C3.1116 1.67452 4.46753 1 5.98059 1C8.73129 1 10.9612 3.22988 10.9612 5.98059C10.9612 8.73129 8.73129 10.9612 5.98059 10.9612C3.22988 10.9612 1 8.73129 1 5.98059H0C0 9.28358 2.6776 11.9612 5.98059 11.9612C9.28358 11.9612 11.9612 9.28358 11.9612 5.98059C11.9612 2.6776 9.28358 0 5.98059 0C4.19563 0 2.59372 0.782138 1.49836 2.02115V1.24767H0.49836V3.2406V3.7406H0.99836H2.99131V2.7406ZM5.48204 2.69223L5.48171 5.98299L5.48169 6.19013L5.62815 6.3366L7.95176 8.6602L8.65887 7.95309L6.48173 5.77596L6.48204 2.69233L5.48204 2.69223Z" fill="#959A9F"/>
</svg>
