<svg width="18" height="20" viewBox="0 0 18 20" fill="none" xmlns="http://www.w3.org/2000/svg">
<path d="M7.67795 11.7941V13.6085C6.15071 13.6085 4.68603 14.182 3.6061 15.2029C2.52618 16.2237 1.91949 17.6083 1.91949 19.0519H0C0 17.127 0.808925 15.281 2.24882 13.9198C3.68872 12.5587 5.64163 11.7941 7.67795 11.7941ZM7.67795 10.8868C4.4964 10.8868 1.91949 8.4509 1.91949 5.44341C1.91949 2.43593 4.4964 0 7.67795 0C10.8595 0 13.4364 2.43593 13.4364 5.44341C13.4364 8.4509 10.8595 10.8868 7.67795 10.8868ZM7.67795 9.07235C9.79899 9.07235 11.5169 7.4484 11.5169 5.44341C11.5169 3.43842 9.79899 1.81447 7.67795 1.81447C5.55692 1.81447 3.83898 3.43842 3.83898 5.44341C3.83898 7.4484 5.55692 9.07235 7.67795 9.07235ZM13.4364 18.5983L10.6157 20L11.1541 17.0315L8.87283 14.9286L12.0266 14.4949L13.4364 11.7941L14.8472 14.4949L18 14.9286L15.7187 17.0315L16.2561 20L13.4364 18.5983Z" fill="currentColor"/>
</svg>
