<svg width="31" height="30" viewBox="0 0 31 30" fill="none" xmlns="http://www.w3.org/2000/svg">
<ellipse cx="15.2479" cy="15" rx="15.12" ry="15" fill="#333333" fill-opacity="0.2"/>
<path d="M10.2811 17.8309L15.3693 12.7834L12.303 11.4642C12.2006 11.4198 12.14 11.3131 12.1557 11.203C12.171 11.093 12.2585 11.0065 12.3701 10.9924L20.0067 10.0021C20.0832 9.99206 20.1605 10.0183 20.2153 10.0723C20.27 10.1267 20.296 10.2031 20.286 10.2792L19.288 17.8553C19.2805 17.9108 19.255 17.9606 19.2169 17.9981C19.1796 18.0352 19.1306 18.0604 19.0754 18.0682C18.9645 18.0836 18.8569 18.0235 18.8121 17.9217L17.4826 14.88L12.3945 19.9277C12.2972 20.0241 12.1396 20.0241 12.0423 19.9277L10.281 18.1805C10.1838 18.0838 10.1838 17.9276 10.2811 17.8309Z" fill="white"/>
</svg>
