<svg width="31" height="30" viewBox="0 0 31 30" fill="none" xmlns="http://www.w3.org/2000/svg">
<ellipse cx="15.2479" cy="15" rx="15.12" ry="15" fill="#333333" fill-opacity="0.2"/>
<path d="M20.2145 12.1691L15.1264 17.2166L18.1926 18.5358C18.295 18.5802 18.3556 18.6869 18.3399 18.797C18.3246 18.907 18.2371 18.9935 18.1255 19.0076L10.4889 19.9979C10.4124 20.0079 10.3352 19.9817 10.2804 19.9277C10.2256 19.8733 10.1997 19.7969 10.2096 19.7208L11.2076 12.1447C11.2151 12.0892 11.2407 12.0394 11.2787 12.0019C11.316 11.9648 11.365 11.9396 11.4202 11.9318C11.5311 11.9164 11.6387 11.9765 11.6835 12.0783L13.013 15.12L18.1011 10.0723C18.1984 9.97591 18.356 9.97591 18.4533 10.0723L20.2146 11.8195C20.3118 11.9162 20.3118 12.0724 20.2145 12.1691Z" fill="white"/>
</svg>
