<svg width="22" height="22" viewBox="0 0 22 22" fill="none" xmlns="http://www.w3.org/2000/svg">
<g clip-path="url(#clip0_2337_9641)">
<path d="M21.5 10.75C21.5 4.82 16.68 0 10.75 0C4.82 0 0 4.82 0 10.75C0 14.22 1.66 17.3 4.22 19.27C4.22 19.27 4.22 19.27 4.23 19.28C6.04 20.67 8.3 21.5 10.75 21.5C13.2 21.5 15.46 20.67 17.27 19.28C17.27 19.28 17.27 19.28 17.28 19.27C19.84 17.3 21.5 14.22 21.5 10.75ZM1.5 10.75C1.5 5.65 5.65 1.5 10.75 1.5C15.85 1.5 20 5.65 20 10.75C20 13.27 18.98 15.56 17.34 17.23C16.89 15.33 15.45 13.57 12.46 13.57H9.04C6.05 13.57 4.61 15.33 4.16 17.23C2.52 15.56 1.5 13.27 1.5 10.75ZM5.51 18.36C5.57 17.33 6.04 15.07 9.04 15.07H12.46C15.46 15.07 15.93 17.34 15.99 18.36C14.5 19.39 12.69 20 10.75 20C8.81 20 7 19.39 5.51 18.36ZM10.76 12.5C12.83 12.5 14.51 10.82 14.51 8.75C14.51 6.68 12.83 5 10.76 5C8.69 5 7.01 6.68 7.01 8.75C7.01 10.82 8.69 12.5 10.76 12.5ZM10.76 6.5C12 6.5 13.01 7.51 13.01 8.75C13.01 9.99 12 11 10.76 11C9.52 11 8.51 9.99 8.51 8.75C8.51 7.51 9.52 6.5 10.76 6.5Z" fill="#878FBC"/>
</g>
<defs>
<clipPath id="clip0_2337_9641">
<rect width="21.5" height="21.5" fill="white"/>
</clipPath>
</defs>
</svg>
