<svg width="14" height="14" viewBox="0 0 14 14" fill="none" xmlns="http://www.w3.org/2000/svg">
<path d="M2.04167 4.08327H3.0724C3.3489 4.08327 3.61612 3.9852 3.82671 3.8067L5.97974 1.98264C6.61266 1.44656 7.58391 1.89641 7.58391 2.72591V11.274C7.58391 12.1035 6.61266 12.5539 5.97974 12.0172L3.82671 10.1932C3.61612 10.0147 3.3489 9.9166 3.0724 9.9166H2.04167C1.55867 9.9166 1.16667 9.5246 1.16667 9.0416V4.95884C1.16667 4.47526 1.55867 4.08327 2.04167 4.08327ZM9.78074 9.78302C10.5268 9.04044 10.9375 8.05169 10.9375 6.99994C10.9375 5.94819 10.5268 4.95944 9.78074 4.21686C9.60924 4.04652 9.3322 4.0465 9.16187 4.218C8.99095 4.38891 8.99209 4.6666 9.16301 4.83693C9.74284 5.41443 10.0625 6.18326 10.0625 7.00051C10.0625 7.81776 9.74284 8.58658 9.16301 9.16408C8.99209 9.33441 8.99095 9.61152 9.16187 9.78302C9.24704 9.86877 9.35962 9.9119 9.47162 9.9119C9.58362 9.91074 9.69499 9.86819 9.78074 9.78302ZM11.1224 11.5616C11.0104 11.5616 10.8978 11.5191 10.8127 11.4333C10.6423 11.2624 10.6423 10.9853 10.8138 10.8144C11.8341 9.79706 12.3958 8.44252 12.3958 6.99994C12.3958 5.55735 11.8341 4.2034 10.8138 3.18548C10.6423 3.01457 10.6423 2.73746 10.8127 2.56655C10.983 2.39563 11.2601 2.39506 11.4316 2.56598C12.6175 3.74898 13.2708 5.32402 13.2708 6.99994C13.2708 8.67585 12.6175 10.2509 11.4316 11.4339C11.3459 11.5191 11.2344 11.5616 11.1224 11.5616Z" fill="#3F80F7"/>
</svg>
