<svg width="24" height="24" viewBox="0 0 24 24" fill="none" xmlns="http://www.w3.org/2000/svg">
<g id="&#233;&#146;&#177;&#229;&#140;&#133;&#229;&#164;&#135;&#228;&#187;&#189; 3">
<g id="wallet">
<path id="Shape" fill-rule="evenodd" clip-rule="evenodd" d="M17 2.25C18.4625 2.25 19.6584 3.3917 19.745 4.83248L19.75 5V6.35352C20.8465 6.66366 21.6647 7.63694 21.7437 8.81273L21.75 9V19C21.75 20.4625 20.6083 21.6584 19.1675 21.745L19 21.75H5C3.53747 21.75 2.3416 20.6083 2.25502 19.1675L2.25 19V5C2.25 3.53747 3.3917 2.3416 4.83248 2.25502L5 2.25H17ZM3.75 7.45015V19C3.75 19.6472 4.24187 20.1795 4.87219 20.2435L5 20.25H19C19.6472 20.25 20.1795 19.7581 20.2435 19.1278L20.25 19V17H16.75C15.0931 17 13.75 15.6569 13.75 14C13.75 12.4023 14.9989 11.0963 16.5737 11.0051L16.75 11H20.25V9C20.25 8.35279 19.7581 7.82047 19.1278 7.75645L19 7.75H5C4.62491 7.75 4.26735 7.6749 3.94155 7.53892L3.75 7.45015ZM20.25 12.5H16.75C15.9216 12.5 15.25 13.1716 15.25 14C15.25 14.7797 15.8449 15.4204 16.6055 15.4931L16.75 15.5H20.25V12.5ZM17 3.75H5C4.30964 3.75 3.75 4.30964 3.75 5C3.75 5.64721 4.24187 6.17953 4.87219 6.24355L5 6.25H18.25V5C18.25 4.35279 17.7581 3.82047 17.1278 3.75645L17 3.75Z" fill="#878FBC"/>
</g>
</g>
</svg>
