<svg width="20" height="20" viewBox="0 0 20 20" fill="none" xmlns="http://www.w3.org/2000/svg">
<path fill-rule="evenodd" clip-rule="evenodd" d="M16.923 3.84619V4.15081C18.9158 4.41338 20 5.73852 20 7.9488V16.154C20 18.6351 18.6338 20.0002 16.1538 20.0002H3.84595C1.36592 20.0002 -0.000244141 18.6351 -0.000244141 16.154V2.82054C-0.000244141 1.26463 1.26541 0 2.8203 0H13.0768C15.5568 0 16.923 1.36514 16.923 3.84619ZM13.0768 1.53848H2.8203C2.11362 1.53848 1.53823 2.11387 1.53823 2.82054C1.53823 3.52722 2.11362 4.10261 2.8203 4.10261H15.3845V3.84619C15.3845 2.22874 14.6943 1.53848 13.0768 1.53848ZM16.1538 18.4617H3.84595C2.2285 18.4617 1.53823 17.7715 1.53823 16.154V5.33236C1.92285 5.53031 2.35875 5.64108 2.8203 5.64108H16.1538C17.7712 5.64108 18.4615 6.33135 18.4615 7.9488V8.71804H14.6153C12.7773 8.71804 11.2819 10.2134 11.2819 12.0514C11.2819 13.8894 12.7773 15.3848 14.6153 15.3848H18.4615V16.154C18.4615 17.7715 17.7712 18.4617 16.1538 18.4617ZM15.1384 11.0258H15.1486C15.7148 11.0258 16.1743 11.4852 16.1743 12.0514C16.1743 12.6176 15.7148 13.0771 15.1486 13.0771C14.5825 13.0771 14.1178 12.6176 14.1178 12.0514C14.1178 11.4852 14.5722 11.0258 15.1384 11.0258ZM18.4615 13.8463H14.6153C13.6255 13.8463 12.8204 13.0412 12.8204 12.0514C12.8204 11.0617 13.6255 10.2565 14.6153 10.2565H18.4615V13.8463Z" fill="#878FBC"/>
</svg>
