<svg width="22" height="20" viewBox="0 0 22 20" fill="none" xmlns="http://www.w3.org/2000/svg">
<path fill-rule="evenodd" clip-rule="evenodd" d="M18.44 3.84619V4.15081C20.5126 4.41338 21.6401 5.73852 21.6401 7.9488V16.154C21.6401 18.6351 20.2192 20.0002 17.64 20.0002H4.83988C2.26066 20.0002 0.839844 18.6351 0.839844 16.154V2.82054C0.839844 1.26463 2.15612 0 3.77321 0H14.44C17.0192 0 18.44 1.36514 18.44 3.84619ZM14.44 1.53848H3.77321C3.03827 1.53848 2.43986 2.11387 2.43986 2.82054C2.43986 3.52722 3.03827 4.10261 3.77321 4.10261H16.84V3.84619C16.84 2.22874 16.1221 1.53848 14.44 1.53848ZM17.64 18.4617H4.83988C3.15773 18.4617 2.43986 17.7715 2.43986 16.154V5.33236C2.83986 5.53031 3.2932 5.64108 3.77321 5.64108H17.64C19.3222 5.64108 20.04 6.33135 20.04 7.9488V8.71804H16.04C14.1285 8.71804 12.5733 10.2134 12.5733 12.0514C12.5733 13.8894 14.1285 15.3848 16.04 15.3848H20.04V16.154C20.04 17.7715 19.3222 18.4617 17.64 18.4617ZM16.584 11.0258H16.5947C17.1835 11.0258 17.6613 11.4852 17.6613 12.0514C17.6613 12.6176 17.1835 13.0771 16.5947 13.0771C16.0059 13.0771 15.5227 12.6176 15.5227 12.0514C15.5227 11.4852 15.9952 11.0258 16.584 11.0258ZM20.04 13.8463H16.04C15.0107 13.8463 14.1733 13.0412 14.1733 12.0514C14.1733 11.0617 15.0107 10.2565 16.04 10.2565H20.04V13.8463Z" fill="#558BED"/>
</svg>
