<svg width="24" height="24" viewBox="0 0 24 24" fill="none" xmlns="http://www.w3.org/2000/svg">
<g id="&#233;&#146;&#177;&#229;&#140;&#133;&#229;&#164;&#135;&#228;&#187;&#189; 3">
<g id="wallet">
<path id="Shape" fill-rule="evenodd" clip-rule="evenodd" d="M17 2.25C18.4625 2.25 19.6584 3.3917 19.745 4.83248L19.75 5V6.35352C20.8465 6.66366 21.6647 7.63694 21.7437 8.81273L21.75 9V19C21.75 20.4625 20.6083 21.6584 19.1675 21.745L19 21.75H5C3.53747 21.75 2.3416 20.6083 2.25502 19.1675L2.25 19V5C2.25 3.53747 3.3917 2.3416 4.83248 2.25502L5 2.25H17ZM3.75 7.45015V19C3.75 19.6472 4.24187 20.1795 4.87219 20.2435L5 20.25H19C19.6472 20.25 20.1795 19.7581 20.2435 19.1278L20.25 19V17H16.75C15.0931 17 13.75 15.6569 13.75 14C13.75 12.4023 14.9989 11.0963 16.5737 11.0051L16.75 11H20.25V9C20.25 8.35279 19.7581 7.82047 19.1278 7.75645L19 7.75H5C4.62491 7.75 4.26735 7.6749 3.94155 7.53892L3.75 7.45015ZM20.25 12.5H16.75C15.9216 12.5 15.25 13.1716 15.25 14C15.25 14.7797 15.8449 15.4204 16.6055 15.4931L16.75 15.5H20.25V12.5ZM17 3.75H5C4.30964 3.75 3.75 4.30964 3.75 5C3.75 5.64721 4.24187 6.17953 4.87219 6.24355L5 6.25H18.25V5C18.25 4.35279 17.7581 3.82047 17.1278 3.75645L17 3.75Z" fill="#878FBC"/>
</g>
<g id="&#231;&#188;&#150;&#231;&#187;&#132;">
<path id="&#229;&#189;&#162;&#231;&#138;&#182;" d="M19 15C16.7846 15 15 16.7846 15 19C15 21.2154 16.7846 23 19 23C21.2154 23 23 21.2154 23 19C23 16.7846 21.2154 15 19 15Z" fill="#3F80F7"/>
<path id="&#232;&#183;&#175;&#229;&#190;&#132;" d="M21 18.2309L18.8769 20.3539C18.8154 20.4155 18.7231 20.4462 18.6308 20.4462C18.5385 20.4462 18.4462 20.4155 18.3846 20.3539L17.0615 19.0309C16.9385 18.9078 16.9385 18.6616 17.0615 18.5385C17.1846 18.4155 17.4308 18.4155 17.5539 18.5385L18.6308 19.6155L20.5077 17.7385C20.6308 17.6155 20.8769 17.6155 21 17.7385C21.1539 17.8616 21.1539 18.1078 21 18.2309Z" fill="white"/>
</g>
</g>
</svg>
