<svg width="14" height="14" viewBox="0 0 14 14" fill="none" xmlns="http://www.w3.org/2000/svg">
<path fill-rule="evenodd" clip-rule="evenodd" d="M7.01348 10.1503C6.62707 10.1503 6.30996 9.83665 6.30996 9.45024C6.30996 9.06383 6.62077 8.75022 7.00648 8.75022H7.01348C7.40059 8.75022 7.71349 9.06383 7.71349 9.45024C7.71349 9.83665 7.40059 10.1503 7.01348 10.1503ZM6.47516 3.8501C6.47516 3.56029 6.70967 3.32508 7.00017 3.32508C7.28998 3.32508 7.52519 3.56029 7.52519 3.8501V7.04988C7.52519 7.33968 7.28998 7.57489 7.00017 7.57489C6.70967 7.57489 6.47516 7.33968 6.47516 7.04988V3.8501ZM7.00017 0C3.13398 0 0 3.13398 0 7.00017C0 10.8664 3.13398 14.0003 7.00017 14.0003C10.8657 14.0003 14.0003 10.8664 14.0003 7.00017C14.0003 3.13398 10.8657 0 7.00017 0Z" fill="#F6465D"/>
</svg>
