<svg width="44" height="44" viewBox="0 0 44 44" fill="none" xmlns="http://www.w3.org/2000/svg">
<circle opacity="0.1" cx="22" cy="22" r="22" fill="url(#paint0_linear_2337_6696)"/>
<g clip-path="url(#clip0_2337_6696)">
<path d="M25.9723 22.1111C25.9723 24.3067 24.1957 26.0833 22.0001 26.0833C19.8045 26.0833 18.0279 24.3067 18.0279 22.1111C18.0279 21.6056 18.129 21.1289 18.3023 20.6811C18.5768 20.8978 18.9234 21.0567 19.299 21.0567C20.209 21.0567 20.9457 20.32 20.9457 19.41C20.9457 19.02 20.7868 18.6878 20.5701 18.3989C21.0179 18.2256 21.4945 18.1244 22.0001 18.1244C24.1957 18.1244 25.9723 19.9011 25.9723 22.0967V22.1111ZM34.4079 24.2489C32.6312 27.21 28.659 32.2222 22.0001 32.2222C15.3412 32.2222 11.369 27.21 9.59232 24.2489C8.81232 22.9344 8.81232 21.3022 9.59232 19.9878C11.369 17.0122 15.3412 12 22.0001 12C28.659 12 32.6312 17.0122 34.4079 19.9733C35.1879 21.2878 35.1879 22.92 34.4079 24.2344V24.2489ZM28.139 22.1111C28.139 18.7311 25.3801 15.9722 22.0001 15.9722C18.6201 15.9722 15.8612 18.7311 15.8612 22.1111C15.8612 25.4911 18.6201 28.25 22.0001 28.25C25.3801 28.25 28.139 25.4911 28.139 22.1111Z" fill="#333333"/>
</g>
<defs>
<linearGradient id="paint0_linear_2337_6696" x1="-5.67091e-08" y1="27.1944" x2="39.3862" y2="27.3647" gradientUnits="userSpaceOnUse">
<stop stop-color="#00FF59"/>
<stop offset="1" stop-color="#AA6CFF"/>
</linearGradient>
<clipPath id="clip0_2337_6696">
<rect width="26" height="20.2222" fill="white" transform="translate(9 12)"/>
</clipPath>
</defs>
</svg>
